<svg width="1280" height="265" xmlns="http://www.w3.org/2000/svg" xmlns:xlink="http://www.w3.org/1999/xlink" overflow="hidden"><defs><filter id="fx0" x="-10%" y="-10%" width="120%" height="120%" filterUnits="userSpaceOnUse" primitiveUnits="userSpaceOnUse"><feComponentTransfer color-interpolation-filters="sRGB"><feFuncR type="discrete" tableValues="0 0"/><feFuncG type="discrete" tableValues="0 0"/><feFuncB type="discrete" tableValues="0 0"/><feFuncA type="linear" slope="0.431373" intercept="0"/></feComponentTransfer><feGaussianBlur stdDeviation="0.528934 0.529934"/></filter><filter id="fx1" x="-10%" y="-10%" width="120%" height="120%" filterUnits="userSpaceOnUse" primitiveUnits="userSpaceOnUse"><feComponentTransfer color-interpolation-filters="sRGB"><feFuncR type="discrete" tableValues="0 0"/><feFuncG type="discrete" tableValues="0 0"/><feFuncB type="discrete" tableValues="0 0"/><feFuncA type="linear" slope="0.431373" intercept="0"/></feComponentTransfer><feGaussianBlur stdDeviation="0.528934 0.529934"/></filter><filter id="fx2" x="-10%" y="-10%" width="120%" height="120%" filterUnits="userSpaceOnUse" primitiveUnits="userSpaceOnUse"><feComponentTransfer color-interpolation-filters="sRGB"><feFuncR type="discrete" tableValues="0 0"/><feFuncG type="discrete" tableValues="0 0"/><feFuncB type="discrete" tableValues="0 0"/><feFuncA type="linear" slope="0.431373" intercept="0"/></feComponentTransfer><feGaussianBlur stdDeviation="0.528934 0.529934"/></filter><filter id="fx3" x="-10%" y="-10%" width="120%" height="120%" filterUnits="userSpaceOnUse" primitiveUnits="userSpaceOnUse"><feComponentTransfer color-interpolation-filters="sRGB"><feFuncR type="discrete" tableValues="0 0"/><feFuncG type="discrete" tableValues="0 0"/><feFuncB type="discrete" tableValues="0 0"/><feFuncA type="linear" slope="0.431373" intercept="0"/></feComponentTransfer><feGaussianBlur stdDeviation="0.528934 0.529934"/></filter><filter id="fx4" x="-10%" y="-10%" width="120%" height="120%" filterUnits="userSpaceOnUse" primitiveUnits="userSpaceOnUse"><feComponentTransfer color-interpolation-filters="sRGB"><feFuncR type="discrete" tableValues="0 0"/><feFuncG type="discrete" tableValues="0 0"/><feFuncB type="discrete" tableValues="0 0"/><feFuncA type="linear" slope="0.431373" intercept="0"/></feComponentTransfer><feGaussianBlur stdDeviation="0.671188 0.672457"/></filter><clipPath id="clip5"><rect x="0" y="0" width="1280" height="265"/></clipPath><linearGradient x1="440.652" y1="167.782" x2="316.372" y2="167.782" gradientUnits="userSpaceOnUse" spreadMethod="reflect" id="fill6"><stop offset="0" stop-color="#203864"/><stop offset="0.5" stop-color="#B4C7E7"/><stop offset="1" stop-color="#DAE3F3"/></linearGradient><linearGradient x1="575.781" y1="166.029" x2="452.355" y2="166.029" gradientUnits="userSpaceOnUse" spreadMethod="reflect" id="fill7"><stop offset="0" stop-color="#203864"/><stop offset="0.5" stop-color="#B4C7E7"/><stop offset="1" stop-color="#DAE3F3"/></linearGradient><linearGradient x1="845.781" y1="168.033" x2="722.355" y2="168.033" gradientUnits="userSpaceOnUse" spreadMethod="reflect" id="fill8"><stop offset="0" stop-color="#203864"/><stop offset="0.5" stop-color="#B4C7E7"/><stop offset="1" stop-color="#DAE3F3"/></linearGradient><linearGradient x1="710.652" y1="167.782" x2="586.372" y2="167.782" gradientUnits="userSpaceOnUse" spreadMethod="reflect" id="fill9"><stop offset="0" stop-color="#203864"/><stop offset="0.5" stop-color="#B4C7E7"/><stop offset="1" stop-color="#DAE3F3"/></linearGradient><clipPath id="clip10"><rect x="16" y="16" width="33" height="15"/></clipPath><clipPath id="clip11"><rect x="15" y="16" width="34" height="15"/></clipPath><clipPath id="clip12"><rect x="17" y="16" width="32" height="15"/></clipPath><clipPath id="clip13"><rect x="16" y="16" width="33" height="15"/></clipPath><clipPath id="clip14"><rect x="21" y="20" width="37" height="26"/></clipPath><linearGradient x1="826" y1="48.0907" x2="301" y2="48.0907" gradientUnits="userSpaceOnUse" spreadMethod="reflect" id="fill15"><stop offset="0" stop-color="#17CF8A"/><stop offset="0.00546448" stop-color="#18CF8A"/><stop offset="0.010929" stop-color="#1ACF8B"/><stop offset="0.0163934" stop-color="#1CD08C"/><stop offset="0.0218579" stop-color="#1ED08D"/><stop offset="0.0273224" stop-color="#20D18E"/><stop offset="0.0327869" stop-color="#22D18F"/><stop offset="0.0382514" stop-color="#23D190"/><stop offset="0.0437158" stop-color="#25D291"/><stop offset="0.0491803" stop-color="#27D292"/><stop offset="0.0546448" stop-color="#29D393"/><stop offset="0.0601093" stop-color="#2BD394"/><stop offset="0.0655738" stop-color="#2CD495"/><stop offset="0.0710383" stop-color="#2ED496"/><stop offset="0.0765027" stop-color="#30D497"/><stop offset="0.0819672" stop-color="#32D598"/><stop offset="0.0874317" stop-color="#34D598"/><stop offset="0.0928962" stop-color="#35D699"/><stop offset="0.0983607" stop-color="#37D69A"/><stop offset="0.103825" stop-color="#39D69B"/><stop offset="0.10929" stop-color="#3AD79C"/><stop offset="0.114754" stop-color="#3CD79D"/><stop offset="0.120219" stop-color="#3ED79E"/><stop offset="0.125683" stop-color="#3FD89F"/><stop offset="0.131148" stop-color="#41D8A0"/><stop offset="0.136612" stop-color="#43D9A0"/><stop offset="0.142077" stop-color="#44D9A1"/><stop offset="0.147541" stop-color="#46D9A2"/><stop offset="0.153005" stop-color="#48DAA3"/><stop offset="0.15847" stop-color="#49DAA4"/><stop offset="0.163934" stop-color="#4BDAA5"/><stop offset="0.169399" stop-color="#4DDBA5"/><stop offset="0.174863" stop-color="#4EDBA6"/><stop offset="0.180328" stop-color="#50DCA7"/><stop offset="0.185792" stop-color="#51DCA8"/><stop offset="0.191257" stop-color="#53DCA9"/><stop offset="0.196721" stop-color="#54DDA9"/><stop offset="0.202186" stop-color="#56DDAA"/><stop offset="0.20765" stop-color="#58DDAB"/><stop offset="0.213115" stop-color="#59DEAC"/><stop offset="0.218579" stop-color="#5BDEAD"/><stop offset="0.224044" stop-color="#5CDEAD"/><stop offset="0.229508" stop-color="#5EDFAE"/><stop offset="0.234973" stop-color="#5FDFAF"/><stop offset="0.240437" stop-color="#61DFB0"/><stop offset="0.245902" stop-color="#62E0B1"/><stop offset="0.251366" stop-color="#64E0B1"/><stop offset="0.256831" stop-color="#65E0B2"/><stop offset="0.262295" stop-color="#66E1B3"/><stop offset="0.26776" stop-color="#68E1B4"/><stop offset="0.273224" stop-color="#69E1B4"/><stop offset="0.278689" stop-color="#6BE2B5"/><stop offset="0.284153" stop-color="#6CE2B6"/><stop offset="0.289617" stop-color="#6EE2B6"/><stop offset="0.295082" stop-color="#6FE3B7"/><stop offset="0.300546" stop-color="#70E3B8"/><stop offset="0.306011" stop-color="#72E3B9"/><stop offset="0.311475" stop-color="#73E4B9"/><stop offset="0.31694" stop-color="#74E4BA"/><stop offset="0.322404" stop-color="#76E4BB"/><stop offset="0.327869" stop-color="#77E5BB"/><stop offset="0.333333" stop-color="#78E5BC"/><stop offset="0.338798" stop-color="#7AE5BD"/><stop offset="0.344262" stop-color="#7BE5BD"/><stop offset="0.349727" stop-color="#7CE6BE"/><stop offset="0.355191" stop-color="#7EE6BF"/><stop offset="0.360656" stop-color="#7FE6BF"/><stop offset="0.36612" stop-color="#80E7C0"/><stop offset="0.371585" stop-color="#81E7C1"/><stop offset="0.377049" stop-color="#83E7C1"/><stop offset="0.382514" stop-color="#84E7C2"/><stop offset="0.387978" stop-color="#85E8C3"/><stop offset="0.393443" stop-color="#86E8C3"/><stop offset="0.398907" stop-color="#88E8C4"/><stop offset="0.404372" stop-color="#89E9C5"/><stop offset="0.409836" stop-color="#8AE9C5"/><stop offset="0.415301" stop-color="#8BE9C6"/><stop offset="0.420765" stop-color="#8CE9C6"/><stop offset="0.42623" stop-color="#8EEAC7"/><stop offset="0.431694" stop-color="#8FEAC8"/><stop offset="0.437158" stop-color="#90EAC8"/><stop offset="0.442623" stop-color="#91EAC9"/><stop offset="0.448087" stop-color="#92EBC9"/><stop offset="0.453552" stop-color="#93EBCA"/><stop offset="0.459016" stop-color="#94EBCA"/><stop offset="0.464481" stop-color="#95EBCB"/><stop offset="0.469945" stop-color="#97ECCC"/><stop offset="0.47541" stop-color="#98ECCC"/><stop offset="0.480874" stop-color="#99ECCD"/><stop offset="0.486339" stop-color="#9AECCD"/><stop offset="0.491803" stop-color="#9BEDCE"/><stop offset="0.497268" stop-color="#9CEDCE"/><stop offset="0.502732" stop-color="#9DEDCF"/><stop offset="0.508197" stop-color="#9EEDCF"/><stop offset="0.513661" stop-color="#9FEED0"/><stop offset="0.519126" stop-color="#A0EED0"/><stop offset="0.52459" stop-color="#A1EED1"/><stop offset="0.530055" stop-color="#A2EED1"/><stop offset="0.535519" stop-color="#A3EFD2"/><stop offset="0.540984" stop-color="#A4EFD2"/><stop offset="0.546448" stop-color="#A5EFD3"/><stop offset="0.551913" stop-color="#A6EFD3"/><stop offset="0.557377" stop-color="#A7EFD4"/><stop offset="0.562842" stop-color="#A8F0D4"/><stop offset="0.568306" stop-color="#A8F0D5"/><stop offset="0.57377" stop-color="#A9F0D5"/><stop offset="0.579235" stop-color="#AAF0D6"/><stop offset="0.584699" stop-color="#ABF0D6"/><stop offset="0.590164" stop-color="#ACF1D7"/><stop offset="0.595628" stop-color="#ADF1D7"/><stop offset="0.601093" stop-color="#AEF1D8"/><stop offset="0.606557" stop-color="#AEF1D8"/><stop offset="0.612022" stop-color="#AFF1D8"/><stop offset="0.617486" stop-color="#B0F2D9"/><stop offset="0.622951" stop-color="#B1F2D9"/><stop offset="0.628415" stop-color="#B2F2DA"/><stop offset="0.63388" stop-color="#B3F2DA"/><stop offset="0.639344" stop-color="#B3F2DA"/><stop offset="0.644809" stop-color="#B4F2DB"/><stop offset="0.650273" stop-color="#B5F3DB"/><stop offset="0.655738" stop-color="#B6F3DC"/><stop offset="0.661202" stop-color="#B6F3DC"/><stop offset="0.666667" stop-color="#B7F3DC"/><stop offset="0.672131" stop-color="#B8F3DD"/><stop offset="0.677596" stop-color="#B8F3DD"/><stop offset="0.68306" stop-color="#B9F4DD"/><stop offset="0.688525" stop-color="#BAF4DE"/><stop offset="0.693989" stop-color="#BBF4DE"/><stop offset="0.699454" stop-color="#BBF4DF"/><stop offset="0.704918" stop-color="#BCF4DF"/><stop offset="0.710383" stop-color="#BCF4DF"/><stop offset="0.715847" stop-color="#BDF5E0"/><stop offset="0.721311" stop-color="#BEF5E0"/><stop offset="0.726776" stop-color="#BEF5E0"/><stop offset="0.73224" stop-color="#BFF5E0"/><stop offset="0.737705" stop-color="#C0F5E1"/><stop offset="0.743169" stop-color="#C0F5E1"/><stop offset="0.748634" stop-color="#C1F5E1"/><stop offset="0.754098" stop-color="#C1F5E2"/><stop offset="0.759563" stop-color="#C2F6E2"/><stop offset="0.765027" stop-color="#C2F6E2"/><stop offset="0.770492" stop-color="#C3F6E2"/><stop offset="0.775956" stop-color="#C3F6E3"/><stop offset="0.781421" stop-color="#C4F6E3"/><stop offset="0.786885" stop-color="#C4F6E3"/><stop offset="0.79235" stop-color="#C5F6E4"/><stop offset="0.797814" stop-color="#C5F6E4"/><stop offset="0.803279" stop-color="#C6F7E4"/><stop offset="0.808743" stop-color="#C6F7E4"/><stop offset="0.814208" stop-color="#C7F7E4"/><stop offset="0.819672" stop-color="#C7F7E5"/><stop offset="0.825137" stop-color="#C8F7E5"/><stop offset="0.830601" stop-color="#C8F7E5"/><stop offset="0.836066" stop-color="#C8F7E5"/><stop offset="0.84153" stop-color="#C9F7E5"/><stop offset="0.846995" stop-color="#C9F7E6"/><stop offset="0.852459" stop-color="#C9F7E6"/><stop offset="0.857924" stop-color="#CAF7E6"/><stop offset="0.863388" stop-color="#CAF7E6"/><stop offset="0.868852" stop-color="#CAF8E6"/><stop offset="0.874317" stop-color="#CBF8E7"/><stop offset="0.879781" stop-color="#CBF8E7"/><stop offset="0.885246" stop-color="#CBF8E7"/><stop offset="0.89071" stop-color="#CCF8E7"/><stop offset="0.896175" stop-color="#CCF8E7"/><stop offset="0.901639" stop-color="#CCF8E7"/><stop offset="0.907104" stop-color="#CCF8E7"/><stop offset="0.912568" stop-color="#CDF8E8"/><stop offset="0.918033" stop-color="#CDF8E8"/><stop offset="0.923497" stop-color="#CDF8E8"/><stop offset="0.928962" stop-color="#CDF8E8"/><stop offset="0.934426" stop-color="#CDF8E8"/><stop offset="0.939891" stop-color="#CEF8E8"/><stop offset="0.945355" stop-color="#CEF8E8"/><stop offset="0.95082" stop-color="#CEF8E8"/><stop offset="0.956284" stop-color="#CEF8E8"/><stop offset="0.961749" stop-color="#CEF8E8"/><stop offset="0.967213" stop-color="#CEF8E8"/><stop offset="0.972678" stop-color="#CEF8E8"/><stop offset="0.978142" stop-color="#CEF8E8"/><stop offset="0.983607" stop-color="#CEF8E8"/><stop offset="0.989071" stop-color="#CEF8E8"/><stop offset="0.994536" stop-color="#CEF8E8"/><stop offset="1" stop-color="#CFF9E9"/></linearGradient></defs><g clip-path="url(#clip5)"><rect x="0" y="0" width="1280" height="265.501" fill="#FFFFFF"/><path d="M316.372 190.235C320.34 157.793 350.029 134.688 382.684 138.63 406.295 141.48 425.935 158.012 432.644 180.681L440.652 180.681 426.625 197.372 406.902 180.681 414.718 180.681C405.408 159.235 380.302 149.322 358.643 158.54 344.683 164.482 334.965 177.323 333.126 192.257Z" stroke="#172C51" stroke-width="1.33333" stroke-miterlimit="8" fill="url(#fill6)" fill-rule="evenodd"/><path d="M452.355 188.79C456.224 156.065 485.618 132.706 518.007 136.616 541.568 139.46 561.156 156.274 567.742 179.307L575.781 179.307 561.625 195.87 542.031 179.307 549.896 179.307C540.872 157.53 516.144 147.291 494.662 156.439 480.663 162.4 470.904 175.528 469.108 190.813Z" stroke="#172C51" stroke-width="1.33333" stroke-miterlimit="8" fill="url(#fill7)" fill-rule="evenodd"/><path d="M722.355 190.794C726.224 158.069 755.618 134.71 788.007 138.62 811.568 141.464 831.156 158.278 837.742 181.311L845.781 181.311 831.625 197.873 812.031 181.311 819.896 181.311C810.872 159.534 786.144 149.295 764.662 158.442 750.663 164.404 740.904 177.531 739.108 192.816Z" stroke="#172C51" stroke-width="1.33333" stroke-miterlimit="8" fill="url(#fill8)" fill-rule="evenodd"/><path d="M586.372 190.235C590.34 157.793 620.029 134.688 652.684 138.63 676.295 141.48 695.935 158.012 702.644 180.681L710.652 180.681 696.625 197.372 676.902 180.681 684.718 180.681C675.408 159.235 650.302 149.322 628.643 158.54 614.683 164.482 604.965 177.323 603.126 192.257Z" stroke="#172C51" stroke-width="1.33333" stroke-miterlimit="8" fill="url(#fill9)" fill-rule="evenodd"/><text font-family="Calibri,Calibri_MSFontService,sans-serif" font-weight="700" font-size="16" transform="matrix(1 0 0 1.00189 355.587 191)">-</text><text font-family="Calibri,Calibri_MSFontService,sans-serif" font-weight="700" font-size="16" transform="matrix(1 0 0 1.00189 360.421 191)">188</text><text font-family="Calibri,Calibri_MSFontService,sans-serif" font-weight="400" font-size="14" transform="matrix(1 0 0 1.00189 323.841 208)">duplicate/triplet</text><text font-family="Calibri,Calibri_MSFontService,sans-serif" font-weight="400" font-size="14" transform="matrix(1 0 0 1.00189 321.754 225)">records removed</text><text font-family="Calibri,Calibri_MSFontService,sans-serif" font-weight="700" font-size="16" transform="matrix(1 0 0 1.00189 493.454 186)">-</text><text font-family="Calibri,Calibri_MSFontService,sans-serif" font-weight="700" font-size="16" transform="matrix(1 0 0 1.00189 498.287 186)">425</text><text font-family="Calibri,Calibri_MSFontService,sans-serif" font-weight="400" font-size="14" transform="matrix(1 0 0 1.00189 475.954 203)">excluded by</text><text font-family="Calibri,Calibri_MSFontService,sans-serif" font-weight="400" font-size="14" transform="matrix(1 0 0 1.00189 482.12 220)">reviewers</text><text font-family="Calibri,Calibri_MSFontService,sans-serif" font-weight="700" font-size="16" transform="matrix(1 0 0 1.00189 637.801 192)">-</text><text font-family="Calibri,Calibri_MSFontService,sans-serif" font-weight="700" font-size="16" transform="matrix(1 0 0 1.00189 642.634 192)">1</text><text font-family="Calibri,Calibri_MSFontService,sans-serif" font-weight="400" font-size="14" transform="matrix(1 0 0 1.00189 606.967 209)">not</text><text font-family="Calibri,Calibri_MSFontService,sans-serif" font-weight="400" font-size="14" transform="matrix(1 0 0 1.00189 629.467 209)">retrieved</text><text font-family="Calibri,Calibri_MSFontService,sans-serif" font-weight="700" font-size="16" transform="matrix(1 0 0 1.00189 771.953 191)">-</text><text font-family="Calibri,Calibri_MSFontService,sans-serif" font-weight="700" font-size="16" transform="matrix(1 0 0 1.00189 776.787 191)">27</text><text font-family="Calibri,Calibri_MSFontService,sans-serif" font-weight="400" font-size="14" transform="matrix(1 0 0 1.00189 748.207 209)">excluded</text><text font-family="Calibri,Calibri_MSFontService,sans-serif" font-weight="400" font-size="15" transform="matrix(1 0 0 1.00189 802.54 209)">by</text><text font-family="Calibri,Calibri_MSFontService,sans-serif" font-weight="400" font-size="15" transform="matrix(1 0 0 1.00189 747.62 227)">reviewers</text><text font-family="Calibri,Calibri_MSFontService,sans-serif" font-weight="400" font-size="10" transform="matrix(1 0 0 1.00189 809.453 223)">1)</text><rect x="973" y="37.0699" width="270" height="191.361" fill="#D4D8E4"/><text font-family="Calibri,Calibri_MSFontService,sans-serif" font-weight="700" font-size="10" transform="matrix(1 0 0 1.00189 982.479 51)">1)</text><text font-family="Calibri,Calibri_MSFontService,sans-serif" font-weight="700" font-size="14" transform="matrix(1 0 0 1.00189 990.479 55)">Reasons for exclusion:</text><text font-family="Calibri,Calibri_MSFontService,sans-serif" font-weight="400" font-size="14" transform="matrix(1 0 0 1.00189 982.479 91)">•</text><text font-family="Calibri,Calibri_MSFontService,sans-serif" font-weight="400" font-size="14" transform="matrix(1 0 0 1.00189 992.646 91)">insufficient data reporting (</text><text font-family="Calibri,Calibri_MSFontService,sans-serif" font-style="italic" font-weight="400" font-size="14" transform="matrix(1 0 0 1.00189 1148.15 91)">n</text><text font-family="Calibri,Calibri_MSFontService,sans-serif" font-weight="400" font-size="14" transform="matrix(1 0 0 1.00189 1161.65 91)">= 10)</text><text fill="#808080" font-family="Calibri,Calibri_MSFontService,sans-serif" font-weight="400" font-size="14" transform="matrix(1 0 0 1.00189 1190.31 91)">​</text><text font-family="Calibri,Calibri_MSFontService,sans-serif" font-weight="400" font-size="14" transform="matrix(1 0 0 1.00189 982.479 111)">•</text><text font-family="Calibri,Calibri_MSFontService,sans-serif" font-weight="400" font-size="14" transform="matrix(1 0 0 1.00189 992.646 111)">language</text><text font-family="Calibri,Calibri_MSFontService,sans-serif" font-weight="400" font-size="14" transform="matrix(1 0 0 1.00189 1050.48 111)">(</text><text font-family="Calibri,Calibri_MSFontService,sans-serif" font-style="italic" font-weight="400" font-size="14" transform="matrix(1 0 0 1.00189 1054.65 111)">n</text><text font-family="Calibri,Calibri_MSFontService,sans-serif" font-weight="400" font-size="14" transform="matrix(1 0 0 1.00189 1064.98 111)">=</text><text font-family="Calibri,Calibri_MSFontService,sans-serif" font-weight="400" font-size="14" transform="matrix(1 0 0 1.00189 1075.15 111)">8)</text><text fill="#808080" font-family="Calibri,Calibri_MSFontService,sans-serif" font-weight="400" font-size="14" transform="matrix(1 0 0 1.00189 1086.48 111)">​</text><text font-family="Calibri,Calibri_MSFontService,sans-serif" font-weight="400" font-size="14" transform="matrix(1 0 0 1.00189 982.479 131)">•</text><text font-family="Calibri,Calibri_MSFontService,sans-serif" font-weight="400" font-size="14" transform="matrix(1 0 0 1.00189 992.646 131)">other research question (</text><text font-family="Calibri,Calibri_MSFontService,sans-serif" font-style="italic" font-weight="400" font-size="14" transform="matrix(1 0 0 1.00189 1136.31 131)">n</text><text font-family="Calibri,Calibri_MSFontService,sans-serif" font-weight="400" font-size="14" transform="matrix(1 0 0 1.00189 1146.65 131)">= 2)</text><text fill="#808080" font-family="Calibri,Calibri_MSFontService,sans-serif" font-weight="400" font-size="14" transform="matrix(1 0 0 1.00189 1168.15 131)">​</text><text font-family="Calibri,Calibri_MSFontService,sans-serif" font-weight="400" font-size="14" transform="matrix(1 0 0 1.00189 982.479 151)">•</text><text font-family="Calibri,Calibri_MSFontService,sans-serif" font-weight="400" font-size="14" transform="matrix(1 0 0 1.00189 992.646 151)">study design</text><text font-family="Calibri,Calibri_MSFontService,sans-serif" font-weight="400" font-size="14" transform="matrix(1 0 0 1.00189 1070.31 151)">(</text><text font-family="Calibri,Calibri_MSFontService,sans-serif" font-style="italic" font-weight="400" font-size="14" transform="matrix(1 0 0 1.00189 1074.48 151)">n</text><text font-family="Calibri,Calibri_MSFontService,sans-serif" font-weight="400" font-size="14" transform="matrix(1 0 0 1.00189 1084.81 151)">= 6)</text><text fill="#808080" font-family="Calibri,Calibri_MSFontService,sans-serif" font-weight="400" font-size="14" transform="matrix(1 0 0 1.00189 1106.31 151)">​</text><text font-family="Calibri,Calibri_MSFontService,sans-serif" font-weight="400" font-size="14" transform="matrix(1 0 0 1.00189 982.479 172)">•</text><text font-family="Calibri,Calibri_MSFontService,sans-serif" font-weight="400" font-size="14" transform="matrix(1 0 0 1.00189 992.646 172)">duplicate</text><text font-family="Calibri,Calibri_MSFontService,sans-serif" font-weight="400" font-size="14" transform="matrix(1 0 0 1.00189 1051.65 172)">(</text><text font-family="Calibri,Calibri_MSFontService,sans-serif" font-style="italic" font-weight="400" font-size="14" transform="matrix(1 0 0 1.00189 1055.81 172)">n</text><text font-family="Calibri,Calibri_MSFontService,sans-serif" font-weight="400" font-size="14" transform="matrix(1 0 0 1.00189 1066.15 172)">= 1)</text><text fill="#808080" font-family="Calibri,Calibri_MSFontService,sans-serif" font-weight="400" font-size="14" transform="matrix(1 0 0 1.00189 1087.65 172)">​</text><path d="M274 70.1323 398.898 70.1323 431 102.193 398.898 134.253 274 134.253 274 70.1323Z" stroke="#FFFFFF" stroke-width="2" stroke-miterlimit="8" fill="#CFF9E9" fill-rule="evenodd"/><g clip-path="url(#clip10)" filter="url(#fx0)" transform="translate(314 79)"><g><path d="M9.79248-12.1304C9.79248-11.9321 9.78564-11.7595 9.77197-11.6125 9.7583-11.4656 9.7395-11.3289 9.71558-11.2024 9.69165-11.0759 9.65918-10.9563 9.61816-10.8435 9.57715-10.7307 9.5293-10.6094 9.47461-10.4795L5.10645-0.358887C5.06543-0.27002 5.01245-0.198242 4.94751-0.143555 4.88257-0.0888672 4.79199-0.0461426 4.67578-0.0153809 4.55957 0.0153809 4.41089 0.0358887 4.22974 0.0461426 4.04858 0.0563965 3.82471 0.0615234 3.55811 0.0615234 3.1958 0.0615234 2.90869 0.0495605 2.69678 0.0256348 2.48486 0.00170898 2.32935-0.0358887 2.23022-0.0871582 2.1311-0.138428 2.07812-0.203369 2.07129-0.281982 2.06445-0.360596 2.08838-0.458008 2.14307-0.574219L6.83936-10.9307 1.26123-10.9307C1.11768-10.9307 1.01001-11.0247 0.938232-11.2126 0.866455-11.4006 0.830566-11.6997 0.830566-12.1099 0.830566-12.3149 0.84082-12.491 0.861328-12.6379 0.881836-12.7849 0.910889-12.9062 0.948486-13.002 0.986084-13.0977 1.03052-13.166 1.08179-13.207 1.13306-13.248 1.19287-13.2686 1.26123-13.2686L9.14648-13.2686C9.26953-13.2686 9.37207-13.2566 9.4541-13.2327 9.53613-13.2087 9.60107-13.1558 9.64893-13.0737 9.69678-12.9917 9.73267-12.8755 9.75659-12.7251 9.78052-12.5747 9.79248-12.3765 9.79248-12.1304ZM20.513-1.02539C20.513-0.833984 20.5028-0.671631 20.4823-0.53833 20.4618-0.405029 20.4327-0.299072 20.3951-0.220459 20.3575-0.141846 20.3148-0.0854492 20.2669-0.0512695 20.2191-0.0170898 20.1644 0 20.1029 0L12.7816 0C12.7269 0 12.6756-0.0170898 12.6278-0.0512695 12.5799-0.0854492 12.5372-0.141846 12.4996-0.220459 12.462-0.299072 12.4329-0.405029 12.4124-0.53833 12.3919-0.671631 12.3817-0.833984 12.3817-1.02539 12.3817-1.22363 12.3902-1.3894 12.4073-1.52271 12.4244-1.65601 12.4517-1.76367 12.4893-1.8457 12.5269-1.92773 12.5697-1.98755 12.6175-2.02515 12.6654-2.06274 12.7201-2.08154 12.7816-2.08154L15.2528-2.08154 15.2528-10.7153 13.12-9.53613C12.9627-9.46094 12.8346-9.41479 12.7354-9.39771 12.6363-9.38062 12.5577-9.40112 12.4996-9.45923 12.4415-9.51733 12.4022-9.61816 12.3817-9.76172 12.3612-9.90527 12.3509-10.1069 12.3509-10.3667 12.3509-10.5308 12.3543-10.6658 12.3612-10.7717 12.368-10.8777 12.3851-10.9683 12.4124-11.0435 12.4398-11.1187 12.4774-11.1802 12.5252-11.228 12.5731-11.2759 12.638-11.3271 12.7201-11.3818L15.5706-13.2275C15.6048-13.2549 15.6475-13.2771 15.6988-13.2942 15.7501-13.3113 15.8167-13.325 15.8988-13.3352 15.9808-13.3455 16.0885-13.3523 16.2218-13.3557 16.3551-13.3591 16.5277-13.3608 16.7396-13.3608 16.9993-13.3608 17.2096-13.3557 17.3702-13.3455 17.5308-13.3352 17.6522-13.3181 17.7342-13.2942 17.8162-13.2703 17.8709-13.2378 17.8983-13.1968 17.9256-13.1558 17.9393-13.1045 17.9393-13.043L17.9393-2.08154 20.1029-2.08154C20.1644-2.08154 20.2208-2.06274 20.2721-2.02515 20.3233-1.98755 20.3678-1.92773 20.4054-1.8457 20.443-1.76367 20.4703-1.65601 20.4874-1.52271 20.5045-1.3894 20.513-1.22363 20.513-1.02539ZM31.5002-7.23926C31.5002-6.69922 31.4728-6.14038 31.4181-5.56274 31.3634-4.98511 31.2592-4.41943 31.1054-3.86572 30.9516-3.31201 30.7397-2.78564 30.4696-2.28662 30.1996-1.7876 29.851-1.35181 29.4237-0.979248 28.9965-0.606689 28.477-0.311035 27.8652-0.0922852 27.2533 0.126465 26.5304 0.23584 25.6965 0.23584 25.4025 0.23584 25.1103 0.215332 24.8197 0.174316 24.5292 0.133301 24.2643 0.0820312 24.0251 0.0205078 23.7858-0.0410156 23.5824-0.105957 23.415-0.174316 23.2475-0.242676 23.1261-0.312744 23.0509-0.384521 22.9757-0.456299 22.9211-0.560547 22.8869-0.697266 22.8527-0.833984 22.8356-1.02539 22.8356-1.27148 22.8356-1.49707 22.8407-1.67822 22.851-1.81494 22.8612-1.95166 22.8818-2.05762 22.9125-2.13281 22.9433-2.20801 22.9809-2.25757 23.0253-2.28149 23.0697-2.30542 23.1227-2.31738 23.1842-2.31738 23.2663-2.31738 23.3825-2.29346 23.5329-2.24561 23.6833-2.19775 23.8661-2.14307 24.0815-2.08154 24.2968-2.02002 24.5412-1.96533 24.8146-1.91748 25.0881-1.86963 25.3923-1.8457 25.7272-1.8457 26.3014-1.8457 26.7868-1.94824 27.1833-2.15332 27.5798-2.3584 27.901-2.63525 28.1471-2.98389 28.3932-3.33252 28.5744-3.73584 28.6906-4.19385 28.8068-4.65186 28.8717-5.13379 28.8854-5.63965 28.571-5.44141 28.1916-5.2688 27.7472-5.12183 27.3029-4.97485 26.7936-4.90137 26.2194-4.90137 25.5153-4.90137 24.9172-4.99365 24.425-5.17822 23.9328-5.36279 23.5329-5.62939 23.2253-5.97803 22.9176-6.32666 22.6938-6.75049 22.5536-7.24951 22.4135-7.74853 22.3434-8.3125 22.3434-8.94141 22.3434-9.60449 22.4425-10.2146 22.6408-10.7717 22.839-11.3289 23.133-11.8108 23.5226-12.2175 23.9123-12.6243 24.3976-12.9404 24.9787-13.166 25.5597-13.3916 26.2331-13.5044 26.9987-13.5044 27.6139-13.5044 28.1523-13.4326 28.6137-13.2891 29.0751-13.1455 29.4716-12.9404 29.8031-12.6738 30.1347-12.4072 30.4115-12.0842 30.6337-11.7048 30.8559-11.3254 31.0302-10.9033 31.1567-10.4385 31.2831-9.97363 31.372-9.47119 31.4233-8.93115 31.4745-8.39111 31.5002-7.82715 31.5002-7.23926ZM28.8239-7.6084C28.8239-8.33984 28.7829-8.95166 28.7008-9.44385 28.6188-9.93604 28.4958-10.3291 28.3317-10.623 28.1676-10.917 27.9626-11.1255 27.7165-11.2485 27.4704-11.3716 27.1833-11.4331 26.8551-11.4331 26.5339-11.4331 26.257-11.3767 26.0246-11.2639 25.7922-11.1511 25.599-10.9922 25.4452-10.7871 25.2914-10.582 25.1769-10.3394 25.1017-10.0591 25.0265-9.77881 24.9889-9.47119 24.9889-9.13623 24.9889-8.77393 25.0214-8.45435 25.0863-8.17749 25.1513-7.90063 25.2538-7.67163 25.394-7.49048 25.5341-7.30933 25.717-7.17432 25.9425-7.08545 26.1681-6.99658 26.4416-6.95215 26.7629-6.95215 27.1593-6.95215 27.5336-7.01196 27.8857-7.13159 28.2377-7.25122 28.5505-7.41016 28.8239-7.6084Z" transform="matrix(1 0 0 1.00189 16.434 30)"/></g></g><text font-family="Calibri,Calibri_MSFontService,sans-serif" font-weight="700" font-size="21" transform="matrix(1 0 0 1.00189 329.312 108)">719</text><path d="M429.5 68.6295 527.474 68.6295 559.5 100.69 527.474 132.751 429.5 132.751 461.526 100.69 429.5 68.6295Z" stroke="#CFD5EA" stroke-width="1.33333" stroke-miterlimit="8" stroke-opacity="0.901961" fill="#A9F5D8" fill-rule="evenodd"/><g clip-path="url(#clip11)" filter="url(#fx1)" transform="translate(464 77)"><g><path d="M9.67969-4.30664C9.67969-3.58887 9.55493-2.948 9.30542-2.38403 9.05591-1.82007 8.70386-1.34497 8.24927-0.95874 7.79468-0.57251 7.2478-0.276855 6.60864-0.0717773 5.96948 0.133301 5.26025 0.23584 4.48096 0.23584 4.0708 0.23584 3.68115 0.210205 3.31201 0.158936 2.94287 0.107666 2.61133 0.0427246 2.31738-0.0358887 2.02344-0.114502 1.78247-0.193115 1.59448-0.271729 1.40649-0.350342 1.28345-0.415283 1.22534-0.466553 1.16724-0.517822 1.12451-0.574219 1.09717-0.635742 1.06982-0.697266 1.04761-0.770752 1.03052-0.856201 1.01343-0.94165 1.00146-1.04932 0.994629-1.1792 0.987793-1.30908 0.984375-1.46289 0.984375-1.64062 0.984375-1.83203 0.991211-1.99438 1.00488-2.12769 1.01855-2.26099 1.04077-2.36865 1.07153-2.45068 1.10229-2.53271 1.13818-2.59082 1.1792-2.625 1.22021-2.65918 1.26807-2.67627 1.32275-2.67627 1.39111-2.67627 1.49536-2.63696 1.6355-2.55835 1.77563-2.47974 1.9602-2.39258 2.18921-2.29688 2.41821-2.20117 2.69678-2.11401 3.0249-2.0354 3.35303-1.95679 3.74609-1.91748 4.2041-1.91748 4.60059-1.91748 4.96118-1.9585 5.28589-2.04053 5.6106-2.12256 5.88574-2.25415 6.11133-2.4353 6.33691-2.61646 6.51123-2.84375 6.63428-3.11719 6.75732-3.39062 6.81885-3.71875 6.81885-4.10156 6.81885-4.42969 6.76758-4.72192 6.66504-4.97827 6.5625-5.23462 6.40185-5.45166 6.18311-5.62939 5.96436-5.80713 5.68066-5.94043 5.33203-6.0293 4.9834-6.11816 4.55957-6.1626 4.06055-6.1626 3.66406-6.1626 3.30347-6.14209 2.97876-6.10107 2.65405-6.06006 2.34814-6.03955 2.06104-6.03955 1.86279-6.03955 1.72095-6.08911 1.6355-6.18823 1.55005-6.28735 1.50732-6.47021 1.50732-6.73682L1.50732-12.4995C1.50732-12.7729 1.5603-12.9695 1.66626-13.0891 1.77222-13.2087 1.94141-13.2686 2.17383-13.2686L8.45947-13.2686C8.521-13.2686 8.5791-13.248 8.63379-13.207 8.68848-13.166 8.73462-13.1011 8.77222-13.0122 8.80981-12.9233 8.83716-12.8054 8.85425-12.6584 8.87134-12.5115 8.87988-12.3354 8.87988-12.1304 8.87988-11.7202 8.84399-11.4229 8.77222-11.2383 8.70044-11.0537 8.59619-10.9614 8.45947-10.9614L3.74268-10.9614 3.74268-8.12109C3.98193-8.14844 4.21948-8.16553 4.45532-8.17236 4.69116-8.1792 4.93896-8.18262 5.19873-8.18262 5.9165-8.18262 6.55395-8.09888 7.11108-7.9314 7.66821-7.76392 8.13647-7.51782 8.51587-7.19312 8.89526-6.86841 9.18408-6.46509 9.38232-5.98315 9.58057-5.50122 9.67969-4.94238 9.67969-4.30664ZM20.5745-3.88623C20.5745-3.22314 20.4481-2.63525 20.1952-2.12256 19.9422-1.60986 19.5902-1.1792 19.139-0.830566 18.6878-0.481934 18.1478-0.217041 17.5189-0.0358887 16.89 0.145264 16.203 0.23584 15.4578 0.23584 15.0067 0.23584 14.5828 0.203369 14.1864 0.138428 13.7899 0.0734863 13.4395-0.00683594 13.1353-0.102539 12.8311-0.198242 12.5799-0.297363 12.3817-0.399902 12.1834-0.502441 12.0535-0.581055 11.992-0.635742 11.9305-0.69043 11.8844-0.751953 11.8536-0.820312 11.8228-0.888672 11.7955-0.968994 11.7716-1.06128 11.7476-1.15356 11.7306-1.26978 11.7203-1.40991 11.71-1.55005 11.7049-1.71924 11.7049-1.91748 11.7049-2.24561 11.7323-2.4729 11.7869-2.59937 11.8416-2.72583 11.9237-2.78906 12.033-2.78906 12.1014-2.78906 12.2193-2.74292 12.3868-2.65063 12.5543-2.55835 12.7679-2.45923 13.0277-2.35327 13.2874-2.24731 13.5916-2.14819 13.9403-2.05591 14.2889-1.96362 14.6854-1.91748 15.1297-1.91748 15.5057-1.91748 15.8372-1.96191 16.1243-2.05078 16.4115-2.13965 16.6558-2.2644 16.8575-2.42505 17.0592-2.58569 17.2096-2.78052 17.3087-3.00952 17.4078-3.23853 17.4574-3.49316 17.4574-3.77344 17.4574-4.08105 17.3975-4.35791 17.2779-4.604 17.1583-4.8501 16.9806-5.0603 16.7447-5.23462 16.5089-5.40894 16.2115-5.54395 15.8526-5.63965 15.4937-5.73535 15.0716-5.7832 14.5863-5.7832L13.4378-5.7832C13.349-5.7832 13.2738-5.79517 13.2122-5.81909 13.1507-5.84302 13.0994-5.89258 13.0584-5.96777 13.0174-6.04297 12.9884-6.14722 12.9713-6.28052 12.9542-6.41382 12.9456-6.58643 12.9456-6.79834 12.9456-6.99658 12.9542-7.15894 12.9713-7.2854 12.9884-7.41186 13.0157-7.50928 13.0533-7.57764 13.0909-7.646 13.1388-7.69385 13.1969-7.72119 13.255-7.74853 13.325-7.76221 13.4071-7.76221L14.5658-7.76221C14.9622-7.76221 15.3143-7.80835 15.6219-7.90063 15.9295-7.99292 16.1876-8.12451 16.3961-8.29541 16.6046-8.46631 16.7635-8.6731 16.8729-8.91577 16.9823-9.15845 17.0369-9.42676 17.0369-9.7207 17.0369-9.94629 16.9993-10.1599 16.9242-10.3616 16.849-10.5632 16.7379-10.7375 16.5909-10.8845 16.4439-11.0315 16.2542-11.1477 16.0218-11.2332 15.7894-11.3186 15.516-11.3613 15.2015-11.3613 14.846-11.3613 14.5111-11.3083 14.1966-11.2024 13.8822-11.0964 13.6002-10.9802 13.3507-10.8538 13.1012-10.7273 12.8892-10.6094 12.7149-10.5 12.5406-10.3906 12.4124-10.3359 12.3304-10.3359 12.2757-10.3359 12.2279-10.3479 12.1868-10.3718 12.1458-10.3958 12.1117-10.4419 12.0843-10.5103 12.057-10.5786 12.0365-10.6777 12.0228-10.8076 12.0091-10.9375 12.0023-11.105 12.0023-11.3101 12.0023-11.481 12.0057-11.6228 12.0125-11.7356 12.0194-11.8484 12.033-11.9424 12.0535-12.0176 12.0741-12.0928 12.0997-12.1577 12.1305-12.2124 12.1612-12.2671 12.2108-12.3269 12.2791-12.3918 12.3475-12.4568 12.4876-12.5542 12.6995-12.6841 12.9115-12.814 13.1781-12.9404 13.4993-13.0635 13.8206-13.1865 14.1915-13.2908 14.6119-13.3762 15.0323-13.4617 15.4886-13.5044 15.9808-13.5044 16.6234-13.5044 17.1925-13.4292 17.6881-13.2788 18.1837-13.1284 18.6007-12.9114 18.939-12.6277 19.2774-12.344 19.5338-11.9954 19.7081-11.5818 19.8824-11.1682 19.9696-10.7017 19.9696-10.1821 19.9696-9.77881 19.9183-9.40283 19.8158-9.0542 19.7132-8.70557 19.5628-8.39453 19.3646-8.12109 19.1663-7.84766 18.9185-7.61523 18.6212-7.42383 18.3238-7.23242 17.9803-7.08887 17.5907-6.99316L17.5907-6.9624C18.0555-6.90771 18.4725-6.78979 18.8416-6.60864 19.2108-6.42749 19.5235-6.20019 19.7799-5.92676 20.0362-5.65332 20.2327-5.34399 20.3695-4.99878 20.5062-4.65356 20.5745-4.28271 20.5745-3.88623ZM31.3464-1.02539C31.3464-0.833984 31.3361-0.671631 31.3156-0.53833 31.2951-0.405029 31.266-0.299072 31.2284-0.220459 31.1908-0.141846 31.1481-0.0854492 31.1003-0.0512695 31.0524-0.0170898 30.9977 0 30.9362 0L23.6149 0C23.5602 0 23.509-0.0170898 23.4611-0.0512695 23.4132-0.0854492 23.3705-0.141846 23.3329-0.220459 23.2953-0.299072 23.2663-0.405029 23.2458-0.53833 23.2253-0.671631 23.215-0.833984 23.215-1.02539 23.215-1.22363 23.2236-1.3894 23.2406-1.52271 23.2577-1.65601 23.2851-1.76367 23.3227-1.8457 23.3603-1.92773 23.403-1.98755 23.4508-2.02515 23.4987-2.06274 23.5534-2.08154 23.6149-2.08154L26.0861-2.08154 26.0861-10.7153 23.9533-9.53613C23.7961-9.46094 23.6679-9.41479 23.5688-9.39771 23.4696-9.38062 23.391-9.40112 23.3329-9.45923 23.2748-9.51733 23.2355-9.61816 23.215-9.76172 23.1945-9.90527 23.1842-10.1069 23.1842-10.3667 23.1842-10.5308 23.1877-10.6658 23.1945-10.7717 23.2013-10.8777 23.2184-10.9683 23.2458-11.0435 23.2731-11.1187 23.3107-11.1802 23.3586-11.228 23.4064-11.2759 23.4714-11.3271 23.5534-11.3818L26.404-13.2275C26.4382-13.2549 26.4809-13.2771 26.5321-13.2942 26.5834-13.3113 26.6501-13.325 26.7321-13.3352 26.8141-13.3455 26.9218-13.3523 27.0551-13.3557 27.1884-13.3591 27.361-13.3608 27.5729-13.3608 27.8327-13.3608 28.0429-13.3557 28.2035-13.3455 28.3642-13.3352 28.4855-13.3181 28.5675-13.2942 28.6496-13.2703 28.7043-13.2378 28.7316-13.1968 28.759-13.1558 28.7726-13.1045 28.7726-13.043L28.7726-2.08154 30.9362-2.08154C30.9977-2.08154 31.0541-2.06274 31.1054-2.02515 31.1567-1.98755 31.2011-1.92773 31.2387-1.8457 31.2763-1.76367 31.3036-1.65601 31.3207-1.52271 31.3378-1.3894 31.3464-1.22363 31.3464-1.02539Z" transform="matrix(1 0 0 1.00189 15.8471 30)"/></g></g><text font-family="Calibri,Calibri_MSFontService,sans-serif" font-weight="700" font-size="21" transform="matrix(1 0 0 1.00189 478.725 106)">531</text><path d="M558.5 70.6333 657.228 70.6333 689.5 102.694 657.228 134.754 558.5 134.754 590.772 102.694 558.5 70.6333Z" stroke="#CFD5EA" stroke-width="1.33333" stroke-miterlimit="8" stroke-opacity="0.901961" fill="#1EE69A" fill-rule="evenodd" fill-opacity="0.6"/><g clip-path="url(#clip12)" filter="url(#fx2)" transform="translate(593 79)"><g><path d="M9.67969-1.02539C9.67969-0.833984 9.66943-0.671631 9.64893-0.53833 9.62842-0.405029 9.59937-0.299072 9.56177-0.220459 9.52417-0.141846 9.48145-0.0854492 9.43359-0.0512695 9.38574-0.0170898 9.33105 0 9.26953 0L1.94824 0C1.89355 0 1.84229-0.0170898 1.79443-0.0512695 1.74658-0.0854492 1.70386-0.141846 1.66626-0.220459 1.62866-0.299072 1.59961-0.405029 1.5791-0.53833 1.55859-0.671631 1.54834-0.833984 1.54834-1.02539 1.54834-1.22363 1.55688-1.3894 1.57397-1.52271 1.59106-1.65601 1.61841-1.76367 1.65601-1.8457 1.6936-1.92773 1.73633-1.98755 1.78418-2.02515 1.83203-2.06274 1.88672-2.08154 1.94824-2.08154L4.41943-2.08154 4.41943-10.7153 2.28662-9.53613C2.12939-9.46094 2.00122-9.41479 1.9021-9.39771 1.80298-9.38062 1.72437-9.40112 1.66626-9.45923 1.60815-9.51733 1.56885-9.61816 1.54834-9.76172 1.52783-9.90527 1.51758-10.1069 1.51758-10.3667 1.51758-10.5308 1.521-10.6658 1.52783-10.7717 1.53467-10.8777 1.55176-10.9683 1.5791-11.0435 1.60645-11.1187 1.64404-11.1802 1.69189-11.228 1.73975-11.2759 1.80469-11.3271 1.88672-11.3818L4.7373-13.2275C4.77148-13.2549 4.81421-13.2771 4.86548-13.2942 4.91675-13.3113 4.9834-13.325 5.06543-13.3352 5.14746-13.3455 5.25513-13.3523 5.38843-13.3557 5.52173-13.3591 5.69434-13.3608 5.90625-13.3608 6.16602-13.3608 6.37622-13.3557 6.53687-13.3455 6.69751-13.3352 6.81885-13.3181 6.90088-13.2942 6.98291-13.2703 7.0376-13.2378 7.06494-13.1968 7.09228-13.1558 7.10596-13.1045 7.10596-13.043L7.10596-2.08154 9.26953-2.08154C9.33105-2.08154 9.38745-2.06274 9.43872-2.02515 9.48999-1.98755 9.53442-1.92773 9.57202-1.8457 9.60962-1.76367 9.63696-1.65601 9.65405-1.52271 9.67114-1.3894 9.67969-1.22363 9.67969-1.02539ZM20.9027-6.68555C20.9027-5.62598 20.8172-4.66895 20.6463-3.81445 20.4754-2.95996 20.1969-2.23193 19.8106-1.63037 19.4244-1.02881 18.922-0.567383 18.3033-0.246094 17.6847 0.0751953 16.9276 0.23584 16.0321 0.23584 15.1229 0.23584 14.3709 0.0803223 13.7762-0.230713 13.1815-0.541748 12.7098-0.989502 12.3612-1.57397 12.0125-2.15845 11.7681-2.8728 11.628-3.71704 11.4879-4.56128 11.4178-5.5166 11.4178-6.58301 11.4178-7.63574 11.505-8.59106 11.6793-9.44897 11.8536-10.3069 12.1339-11.0366 12.5201-11.6382 12.9063-12.2397 13.4088-12.7012 14.0274-13.0225 14.6461-13.3437 15.3997-13.5044 16.2884-13.5044 17.1976-13.5044 17.9513-13.3489 18.5494-13.0378 19.1475-12.7268 19.6209-12.2791 19.9696-11.6946 20.3182-11.1101 20.5609-10.3958 20.6976-9.55151 20.8343-8.70728 20.9027-7.75195 20.9027-6.68555ZM18.1854-6.55225C18.1854-7.18115 18.1683-7.73657 18.1341-8.21851 18.0999-8.70044 18.047-9.11914 17.9752-9.47461 17.9034-9.83008 17.8145-10.1309 17.7086-10.377 17.6026-10.623 17.4744-10.8196 17.3241-10.9666 17.1737-11.1135 17.0028-11.2178 16.8114-11.2793 16.62-11.3408 16.408-11.3716 16.1756-11.3716 15.7723-11.3716 15.439-11.2742 15.1759-11.0793 14.9127-10.8845 14.7042-10.5923 14.5504-10.2026 14.3966-9.81299 14.2889-9.32764 14.2274-8.74658 14.1659-8.16553 14.1351-7.48877 14.1351-6.71631 14.1351-5.77295 14.1727-4.99194 14.2479-4.37329 14.3231-3.75464 14.441-3.26245 14.6016-2.89673 14.7623-2.53101 14.9691-2.27466 15.222-2.12769 15.4749-1.98071 15.7791-1.90723 16.1346-1.90723 16.4012-1.90723 16.637-1.94995 16.8421-2.0354 17.0472-2.12085 17.2266-2.24902 17.3805-2.41992 17.5343-2.59082 17.6624-2.80615 17.765-3.06592 17.8675-3.32568 17.9513-3.62646 18.0162-3.96826 18.0811-4.31006 18.1256-4.69629 18.1495-5.12695 18.1734-5.55762 18.1854-6.03271 18.1854-6.55225ZM31.6745-4.42969C31.6745-3.75977 31.5719-3.1394 31.3669-2.5686 31.1618-1.9978 30.861-1.50562 30.4645-1.09204 30.068-0.678467 29.5793-0.35376 28.9982-0.11792 28.4172 0.11792 27.7472 0.23584 26.9884 0.23584 26.3732 0.23584 25.8366 0.165771 25.3786 0.0256348 24.9206-0.114502 24.5241-0.316162 24.1891-0.579346 23.8542-0.842529 23.5807-1.16211 23.3688-1.53809 23.1569-1.91406 22.9877-2.33789 22.8612-2.80957 22.7348-3.28125 22.6476-3.79395 22.5998-4.34766 22.5519-4.90137 22.528-5.48926 22.528-6.11133 22.528-6.63086 22.5536-7.17432 22.6049-7.7417 22.6562-8.30908 22.7553-8.86621 22.9023-9.41309 23.0492-9.95996 23.256-10.4812 23.5226-10.9768 23.7892-11.4724 24.1327-11.9065 24.5531-12.2791 24.9736-12.6516 25.4828-12.9473 26.081-13.166 26.6791-13.3848 27.3883-13.4941 28.2087-13.4941 28.4684-13.4941 28.7299-13.4788 28.9931-13.448 29.2563-13.4172 29.5007-13.3779 29.7262-13.3301 29.9518-13.2822 30.1432-13.2275 30.3005-13.166 30.4577-13.1045 30.5619-13.0515 30.6132-13.0071 30.6645-12.9626 30.7038-12.9131 30.7311-12.8584 30.7585-12.8037 30.7807-12.7439 30.7978-12.679 30.8149-12.614 30.8268-12.5337 30.8337-12.438 30.8405-12.3423 30.8439-12.2261 30.8439-12.0894 30.8439-11.8774 30.8388-11.7014 30.8285-11.5613 30.8183-11.4211 30.7995-11.3118 30.7721-11.2332 30.7448-11.1545 30.7072-11.0981 30.6593-11.064 30.6115-11.0298 30.5534-11.0127 30.485-11.0127 30.403-11.0127 30.297-11.0349 30.1672-11.0793 30.0373-11.1238 29.88-11.1733 29.6955-11.228 29.5109-11.2827 29.2939-11.3306 29.0444-11.3716 28.7948-11.4126 28.506-11.4331 28.1779-11.4331 27.6242-11.4331 27.1559-11.3306 26.7731-11.1255 26.3903-10.9204 26.0793-10.6418 25.84-10.2898 25.6007-9.93774 25.4264-9.5293 25.3171-9.06445 25.2077-8.59961 25.1496-8.10742 25.1427-7.58789 25.2931-7.68359 25.4657-7.7793 25.6606-7.875 25.8554-7.9707 26.0673-8.05273 26.2963-8.12109 26.5253-8.18945 26.7731-8.24585 27.0397-8.29028 27.3063-8.33472 27.59-8.35693 27.8908-8.35693 28.5607-8.35693 29.1349-8.26465 29.6134-8.08008 30.092-7.89551 30.4833-7.63232 30.7875-7.29053 31.0917-6.94873 31.3156-6.53516 31.4591-6.0498 31.6027-5.56445 31.6745-5.02441 31.6745-4.42969ZM29.029-4.17334C29.029-4.52197 28.9982-4.82788 28.9367-5.09106 28.8752-5.35425 28.776-5.57642 28.6393-5.75757 28.5026-5.93872 28.3215-6.07544 28.0959-6.16772 27.8703-6.26001 27.5968-6.30615 27.2756-6.30615 27.0841-6.30615 26.8962-6.28906 26.7116-6.25488 26.527-6.2207 26.3459-6.17285 26.1681-6.11133 25.9904-6.0498 25.8195-5.97632 25.6554-5.89087 25.4914-5.80542 25.3376-5.71484 25.194-5.61914 25.194-4.8877 25.235-4.27759 25.3171-3.78882 25.3991-3.30005 25.5204-2.91211 25.6811-2.625 25.8417-2.33789 26.0434-2.13452 26.2861-2.01489 26.5287-1.89526 26.8107-1.83545 27.132-1.83545 27.4465-1.83545 27.7216-1.89355 27.9574-2.00977 28.1933-2.12598 28.3898-2.29004 28.547-2.50195 28.7043-2.71387 28.8239-2.96167 28.9059-3.24536 28.988-3.52905 29.029-3.83838 29.029-4.17334Z" transform="matrix(1 0 0 1.00189 16.3891 30)"/></g></g><text font-family="Calibri,Calibri_MSFontService,sans-serif" font-weight="700" font-size="21" transform="matrix(1 0 0 1.00189 608.267 108)">106</text><path d="M687.5 70.6333 786.228 70.6333 818.5 102.694 786.228 134.754 687.5 134.754 719.772 102.694 687.5 70.6333Z" stroke="#CFD5EA" stroke-width="1.33333" stroke-miterlimit="8" stroke-opacity="0.901961" fill="#29E79F" fill-rule="evenodd"/><g clip-path="url(#clip13)" filter="url(#fx3)" transform="translate(722 79)"><g><path d="M9.67969-1.02539C9.67969-0.833984 9.66943-0.671631 9.64893-0.53833 9.62842-0.405029 9.59937-0.299072 9.56177-0.220459 9.52417-0.141846 9.48145-0.0854492 9.43359-0.0512695 9.38574-0.0170898 9.33105 0 9.26953 0L1.94824 0C1.89355 0 1.84229-0.0170898 1.79443-0.0512695 1.74658-0.0854492 1.70386-0.141846 1.66626-0.220459 1.62866-0.299072 1.59961-0.405029 1.5791-0.53833 1.55859-0.671631 1.54834-0.833984 1.54834-1.02539 1.54834-1.22363 1.55688-1.3894 1.57397-1.52271 1.59106-1.65601 1.61841-1.76367 1.65601-1.8457 1.6936-1.92773 1.73633-1.98755 1.78418-2.02515 1.83203-2.06274 1.88672-2.08154 1.94824-2.08154L4.41943-2.08154 4.41943-10.7153 2.28662-9.53613C2.12939-9.46094 2.00122-9.41479 1.9021-9.39771 1.80298-9.38062 1.72437-9.40112 1.66626-9.45923 1.60815-9.51733 1.56885-9.61816 1.54834-9.76172 1.52783-9.90527 1.51758-10.1069 1.51758-10.3667 1.51758-10.5308 1.521-10.6658 1.52783-10.7717 1.53467-10.8777 1.55176-10.9683 1.5791-11.0435 1.60645-11.1187 1.64404-11.1802 1.69189-11.228 1.73975-11.2759 1.80469-11.3271 1.88672-11.3818L4.7373-13.2275C4.77148-13.2549 4.81421-13.2771 4.86548-13.2942 4.91675-13.3113 4.9834-13.325 5.06543-13.3352 5.14746-13.3455 5.25513-13.3523 5.38843-13.3557 5.52173-13.3591 5.69434-13.3608 5.90625-13.3608 6.16602-13.3608 6.37622-13.3557 6.53687-13.3455 6.69751-13.3352 6.81885-13.3181 6.90088-13.2942 6.98291-13.2703 7.0376-13.2378 7.06494-13.1968 7.09228-13.1558 7.10596-13.1045 7.10596-13.043L7.10596-2.08154 9.26953-2.08154C9.33105-2.08154 9.38745-2.06274 9.43872-2.02515 9.48999-1.98755 9.53442-1.92773 9.57202-1.8457 9.60962-1.76367 9.63696-1.65601 9.65405-1.52271 9.67114-1.3894 9.67969-1.22363 9.67969-1.02539ZM20.9027-6.68555C20.9027-5.62598 20.8172-4.66895 20.6463-3.81445 20.4754-2.95996 20.1969-2.23193 19.8106-1.63037 19.4244-1.02881 18.922-0.567383 18.3033-0.246094 17.6847 0.0751953 16.9276 0.23584 16.0321 0.23584 15.1229 0.23584 14.3709 0.0803223 13.7762-0.230713 13.1815-0.541748 12.7098-0.989502 12.3612-1.57397 12.0125-2.15845 11.7681-2.8728 11.628-3.71704 11.4879-4.56128 11.4178-5.5166 11.4178-6.58301 11.4178-7.63574 11.505-8.59106 11.6793-9.44897 11.8536-10.3069 12.1339-11.0366 12.5201-11.6382 12.9063-12.2397 13.4088-12.7012 14.0274-13.0225 14.6461-13.3437 15.3997-13.5044 16.2884-13.5044 17.1976-13.5044 17.9513-13.3489 18.5494-13.0378 19.1475-12.7268 19.6209-12.2791 19.9696-11.6946 20.3182-11.1101 20.5609-10.3958 20.6976-9.55151 20.8343-8.70728 20.9027-7.75195 20.9027-6.68555ZM18.1854-6.55225C18.1854-7.18115 18.1683-7.73657 18.1341-8.21851 18.0999-8.70044 18.047-9.11914 17.9752-9.47461 17.9034-9.83008 17.8145-10.1309 17.7086-10.377 17.6026-10.623 17.4744-10.8196 17.3241-10.9666 17.1737-11.1135 17.0028-11.2178 16.8114-11.2793 16.62-11.3408 16.408-11.3716 16.1756-11.3716 15.7723-11.3716 15.439-11.2742 15.1759-11.0793 14.9127-10.8845 14.7042-10.5923 14.5504-10.2026 14.3966-9.81299 14.2889-9.32764 14.2274-8.74658 14.1659-8.16553 14.1351-7.48877 14.1351-6.71631 14.1351-5.77295 14.1727-4.99194 14.2479-4.37329 14.3231-3.75464 14.441-3.26245 14.6016-2.89673 14.7623-2.53101 14.9691-2.27466 15.222-2.12769 15.4749-1.98071 15.7791-1.90723 16.1346-1.90723 16.4012-1.90723 16.637-1.94995 16.8421-2.0354 17.0472-2.12085 17.2266-2.24902 17.3805-2.41992 17.5343-2.59082 17.6624-2.80615 17.765-3.06592 17.8675-3.32568 17.9513-3.62646 18.0162-3.96826 18.0811-4.31006 18.1256-4.69629 18.1495-5.12695 18.1734-5.55762 18.1854-6.03271 18.1854-6.55225ZM31.3464-4.30664C31.3464-3.58887 31.2216-2.948 30.9721-2.38403 30.7226-1.82007 30.3705-1.34497 29.9159-0.95874 29.4613-0.57251 28.9145-0.276855 28.2753-0.0717773 27.6362 0.133301 26.9269 0.23584 26.1476 0.23584 25.7375 0.23584 25.3478 0.210205 24.9787 0.158936 24.6095 0.107666 24.278 0.0427246 23.9841-0.0358887 23.6901-0.114502 23.4491-0.193115 23.2612-0.271729 23.0732-0.350342 22.9501-0.415283 22.892-0.466553 22.8339-0.517822 22.7912-0.574219 22.7638-0.635742 22.7365-0.697266 22.7143-0.770752 22.6972-0.856201 22.6801-0.94165 22.6681-1.04932 22.6613-1.1792 22.6545-1.30908 22.651-1.46289 22.651-1.64062 22.651-1.83203 22.6579-1.99438 22.6716-2.12769 22.6852-2.26099 22.7074-2.36865 22.7382-2.45068 22.769-2.53271 22.8049-2.59082 22.8459-2.625 22.8869-2.65918 22.9347-2.67627 22.9894-2.67627 23.0578-2.67627 23.162-2.63696 23.3022-2.55835 23.4423-2.47974 23.6269-2.39258 23.8559-2.29688 24.0849-2.20117 24.3634-2.11401 24.6916-2.0354 25.0197-1.95679 25.4128-1.91748 25.8708-1.91748 26.2673-1.91748 26.6278-1.9585 26.9526-2.04053 27.2773-2.12256 27.5524-2.25415 27.778-2.4353 28.0036-2.61646 28.1779-2.84375 28.3009-3.11719 28.424-3.39062 28.4855-3.71875 28.4855-4.10156 28.4855-4.42969 28.4342-4.72192 28.3317-4.97827 28.2292-5.23462 28.0685-5.45166 27.8498-5.62939 27.631-5.80713 27.3473-5.94043 26.9987-6.0293 26.6501-6.11816 26.2262-6.1626 25.7272-6.1626 25.3307-6.1626 24.9701-6.14209 24.6454-6.10107 24.3207-6.06006 24.0148-6.03955 23.7277-6.03955 23.5295-6.03955 23.3876-6.08911 23.3022-6.18823 23.2167-6.28735 23.174-6.47021 23.174-6.73682L23.174-12.4995C23.174-12.7729 23.227-12.9695 23.3329-13.0891 23.4389-13.2087 23.6081-13.2686 23.8405-13.2686L30.1261-13.2686C30.1877-13.2686 30.2458-13.248 30.3005-13.207 30.3551-13.166 30.4013-13.1011 30.4389-13.0122 30.4765-12.9233 30.5038-12.8054 30.5209-12.6584 30.538-12.5115 30.5466-12.3354 30.5466-12.1304 30.5466-11.7202 30.5107-11.4229 30.4389-11.2383 30.3671-11.0537 30.2629-10.9614 30.1261-10.9614L25.4093-10.9614 25.4093-8.12109C25.6486-8.14844 25.8862-8.16553 26.122-8.17236 26.3578-8.1792 26.6056-8.18262 26.8654-8.18262 27.5832-8.18262 28.2206-8.09888 28.7778-7.9314 29.3349-7.76392 29.8031-7.51782 30.1825-7.19312 30.5619-6.86841 30.8507-6.46509 31.049-5.98315 31.2472-5.50122 31.3464-4.94238 31.3464-4.30664Z" transform="matrix(1 0 0 1.00189 16.2642 30)"/></g></g><text font-family="Calibri,Calibri_MSFontService,sans-serif" font-weight="700" font-size="21" transform="matrix(1 0 0 1.00189 737.142 108)">105</text><path d="M824.5 102.694 858.317 40.5766 949.048 40.5766C949.199 61.6376 949.349 82.6987 949.5 103.76 949.349 124.11 949.199 144.461 949.048 164.811L858.317 164.811 824.5 102.694Z" stroke="#CFD5EA" stroke-width="1.33333" stroke-miterlimit="8" stroke-opacity="0.901961" fill="#17CF8A" fill-rule="evenodd"/><g clip-path="url(#clip14)" filter="url(#fx4)" transform="translate(850 69)"><g><path d="M14.9219-18.4844C14.9219-18.1823 14.9115-17.9193 14.8906-17.6953 14.8698-17.4714 14.8411-17.263 14.8047-17.0703 14.7682-16.8776 14.7188-16.6953 14.6562-16.5234 14.5938-16.3516 14.5208-16.1667 14.4375-15.9688L7.78125-0.546875C7.71875-0.411458 7.63802-0.302083 7.53906-0.21875 7.4401-0.135417 7.30208-0.0703125 7.125-0.0234375 6.94792 0.0234375 6.72135 0.0546875 6.44531 0.0703125 6.16927 0.0859375 5.82812 0.09375 5.42188 0.09375 4.86979 0.09375 4.43229 0.0755208 4.10938 0.0390625 3.78646 0.00260417 3.54948-0.0546875 3.39844-0.132812 3.2474-0.210938 3.16667-0.309896 3.15625-0.429688 3.14583-0.549479 3.18229-0.697917 3.26562-0.875L10.4219-16.6562 1.92188-16.6562C1.70312-16.6562 1.53906-16.7995 1.42969-17.0859 1.32031-17.3724 1.26562-17.8281 1.26562-18.4531 1.26562-18.7656 1.28125-19.0339 1.3125-19.2578 1.34375-19.4818 1.38802-19.6667 1.44531-19.8125 1.5026-19.9583 1.57031-20.0625 1.64844-20.125 1.72656-20.1875 1.81771-20.2188 1.92188-20.2188L13.9375-20.2188C14.125-20.2188 14.2812-20.2005 14.4062-20.1641 14.5312-20.1276 14.6302-20.0469 14.7031-19.9219 14.776-19.7969 14.8307-19.6198 14.8672-19.3906 14.9036-19.1615 14.9219-18.8594 14.9219-18.4844ZM31.4167-5.42188C31.4167-4.50521 31.2578-3.6875 30.9401-2.96875 30.6224-2.25 30.1536-1.64323 29.5339-1.14844 28.9141-0.653646 28.1458-0.278646 27.2292-0.0234375 26.3125 0.231771 25.2552 0.359375 24.0573 0.359375 22.9115 0.359375 21.9062 0.244792 21.0417 0.015625 20.1771-0.213542 19.4531-0.549479 18.8698-0.992188 18.2865-1.4349 17.849-1.98177 17.5573-2.63281 17.2656-3.28385 17.1198-4.03125 17.1198-4.875 17.1198-5.44792 17.2057-5.98698 17.3776-6.49219 17.5495-6.9974 17.8047-7.46615 18.1432-7.89844 18.4818-8.33073 18.9036-8.73698 19.4089-9.11719 19.9141-9.4974 20.4948-9.85938 21.151-10.2031 20.6198-10.4948 20.1406-10.8099 19.7135-11.1484 19.2865-11.487 18.9219-11.8568 18.6198-12.2578 18.3177-12.6589 18.0885-13.099 17.9323-13.5781 17.776-14.0573 17.6979-14.5781 17.6979-15.1406 17.6979-15.9531 17.8411-16.6901 18.1276-17.3516 18.4141-18.013 18.8411-18.5859 19.4089-19.0703 19.9766-19.5547 20.6875-19.9271 21.5417-20.1875 22.3958-20.4479 23.3854-20.5781 24.5104-20.5781 25.625-20.5781 26.5807-20.4583 27.3776-20.2188 28.1745-19.9792 28.8281-19.6406 29.3385-19.2031 29.849-18.7656 30.2266-18.2422 30.4714-17.6328 30.7161-17.0234 30.8385-16.349 30.8385-15.6094 30.8385-15.1198 30.7578-14.6432 30.5964-14.1797 30.4349-13.7161 30.2083-13.276 29.9167-12.8594 29.625-12.4427 29.2656-12.0495 28.8385-11.6797 28.4115-11.3099 27.9271-10.974 27.3854-10.6719 28.0208-10.3385 28.5885-9.98438 29.0885-9.60938 29.5885-9.23438 30.0104-8.83073 30.3542-8.39844 30.6979-7.96615 30.9609-7.50521 31.1432-7.01562 31.3255-6.52604 31.4167-5.99479 31.4167-5.42188ZM26.8854-15.2344C26.8854-15.599 26.8333-15.9271 26.7292-16.2188 26.625-16.5104 26.4609-16.7578 26.237-16.9609 26.013-17.1641 25.737-17.3177 25.4089-17.4219 25.0807-17.526 24.6927-17.5781 24.2448-17.5781 23.3698-17.5781 22.7188-17.3776 22.2917-16.9766 21.8646-16.5755 21.651-16.0208 21.651-15.3125 21.651-14.9792 21.7057-14.6719 21.8151-14.3906 21.9245-14.1094 22.0938-13.8437 22.3229-13.5938 22.5521-13.3437 22.849-13.099 23.2135-12.8594 23.5781-12.6198 24.0104-12.3646 24.5104-12.0938 25.2708-12.5417 25.8568-13.0208 26.2682-13.5312 26.6797-14.0417 26.8854-14.6094 26.8854-15.2344ZM27.3542-5.14062C27.3542-5.52604 27.2891-5.8776 27.1589-6.19531 27.0286-6.51302 26.8255-6.8125 26.5495-7.09375 26.2734-7.375 25.9271-7.64583 25.5104-7.90625 25.0938-8.16667 24.6094-8.43229 24.0573-8.70312 23.5781-8.44271 23.1562-8.18229 22.7917-7.92188 22.4271-7.66146 22.125-7.38802 21.8854-7.10156 21.6458-6.8151 21.4661-6.51302 21.3464-6.19531 21.2266-5.8776 21.1667-5.53646 21.1667-5.17188 21.1667-4.35938 21.4297-3.73958 21.9557-3.3125 22.4818-2.88542 23.2656-2.67188 24.3073-2.67188 25.3281-2.67188 26.0911-2.89062 26.5964-3.32812 27.1016-3.76562 27.3542-4.36979 27.3542-5.14062Z" fill="#FFFFFF" transform="matrix(1 0 0 1.00189 23.0324 43)"/></g></g><text fill="#FFFFFF" font-family="Calibri,Calibri_MSFontService,sans-serif" font-weight="700" font-size="32" transform="matrix(1 0 0 1.00189 871.609 111)">78</text><rect x="42" y="37.0699" width="253" height="125.236" fill="#CFF9E9"/><text font-family="Calibri,Calibri_MSFontService,sans-serif" font-weight="700" font-size="16" transform="matrix(1 0 0 1.00189 43.8421 54)">Records identified via databases</text><text font-family="Calibri,Calibri_MSFontService,sans-serif" font-weight="400" font-size="16" transform="matrix(1 0 0 1.00189 43.8421 92)">MEDLINE (PubMed)</text><text font-family="Calibri,Calibri_MSFontService,sans-serif" font-weight="400" font-size="16" transform="matrix(1 0 0 1.00189 187.842 92)">253</text><text font-family="Calibri,Calibri_MSFontService,sans-serif" font-weight="400" font-size="16" transform="matrix(1 0 0 1.00189 43.8421 112)">Embase</text><text font-family="Calibri,Calibri_MSFontService,sans-serif" font-weight="400" font-size="16" transform="matrix(1 0 0 1.00189 187.842 112)">277</text><text font-family="Calibri,Calibri_MSFontService,sans-serif" font-weight="400" font-size="16" transform="matrix(1 0 0 1.00189 43.8421 131)">Cochrane Library</text><text font-family="Calibri,Calibri_MSFontService,sans-serif" font-weight="400" font-size="16" transform="matrix(1 0 0 1.00189 187.842 131)">3</text><text font-family="Calibri,Calibri_MSFontService,sans-serif" font-weight="400" font-size="16" transform="matrix(1 0 0 1.00189 43.8421 150)">Google Scholar</text><text font-family="Calibri,Calibri_MSFontService,sans-serif" font-weight="400" font-size="16" transform="matrix(1 0 0 1.00189 187.842 150)">186</text><text font-family="Calibri,Calibri_MSFontService,sans-serif" font-weight="700" font-size="14" transform="matrix(1 0 0 1.00189 860.857 55)">included in</text><text font-family="Calibri,Calibri_MSFontService,sans-serif" font-weight="700" font-size="14" transform="matrix(1 0 0 1.00189 873.024 73)">review</text><text font-family="Calibri,Calibri_MSFontService,sans-serif" font-weight="700" font-size="14" transform="matrix(1 0 0 1.00189 869.777 147)">analysis</text><text font-family="Calibri,Calibri_MSFontService,sans-serif" font-weight="700" font-size="16" transform="matrix(1 0 0 1.00189 313.884 85)">identified</text><text font-family="Calibri,Calibri_MSFontService,sans-serif" font-weight="700" font-size="16" transform="matrix(1 0 0 1.00189 585.393 84)">sought for</text><text font-family="Calibri,Calibri_MSFontService,sans-serif" font-weight="700" font-size="16" transform="matrix(1 0 0 1.00189 593.499 127)">retrieval</text><text font-family="Calibri,Calibri_MSFontService,sans-serif" font-weight="700" font-size="16" transform="matrix(1 0 0 1.00189 455.901 83)">abstracts</text><text font-family="Calibri,Calibri_MSFontService,sans-serif" font-weight="700" font-size="16" transform="matrix(1 0 0 1.00189 455.854 123)">screened</text><path d="M301 39.575 809 39.575 809 31.0586 826 48.0907 809 65.1229 809 56.6071 301 56.6071Z" fill="url(#fill15)" fill-rule="evenodd"/><text font-family="Calibri,Calibri_MSFontService,sans-serif" font-weight="400" font-size="16" transform="matrix(1 0 0 1.00189 527.352 52)">Screening</text><text font-family="Calibri,Calibri_MSFontService,sans-serif" font-weight="700" font-size="16" transform="matrix(1 0 0 1.00189 709.299 84)">assessed for</text><text font-family="Calibri,Calibri_MSFontService,sans-serif" font-weight="700" font-size="16" transform="matrix(1 0 0 1.00189 720.759 127)">eligibility</text></g></svg>