<svg width="1280" height="265" xmlns="http://www.w3.org/2000/svg" xmlns:xlink="http://www.w3.org/1999/xlink" overflow="hidden"><defs><filter id="fx0" x="-10%" y="-10%" width="120%" height="120%" filterUnits="userSpaceOnUse" primitiveUnits="userSpaceOnUse"><feComponentTransfer color-interpolation-filters="sRGB"><feFuncR type="discrete" tableValues="0 0"/><feFuncG type="discrete" tableValues="0 0"/><feFuncB type="discrete" tableValues="0 0"/><feFuncA type="linear" slope="0.431373" intercept="0"/></feComponentTransfer><feGaussianBlur stdDeviation="0.528934 0.529934"/></filter><filter id="fx1" x="-10%" y="-10%" width="120%" height="120%" filterUnits="userSpaceOnUse" primitiveUnits="userSpaceOnUse"><feComponentTransfer color-interpolation-filters="sRGB"><feFuncR type="discrete" tableValues="0 0"/><feFuncG type="discrete" tableValues="0 0"/><feFuncB type="discrete" tableValues="0 0"/><feFuncA type="linear" slope="0.431373" intercept="0"/></feComponentTransfer><feGaussianBlur stdDeviation="0.528934 0.529934"/></filter><filter id="fx2" x="-10%" y="-10%" width="120%" height="120%" filterUnits="userSpaceOnUse" primitiveUnits="userSpaceOnUse"><feComponentTransfer color-interpolation-filters="sRGB"><feFuncR type="discrete" tableValues="0 0"/><feFuncG type="discrete" tableValues="0 0"/><feFuncB type="discrete" tableValues="0 0"/><feFuncA type="linear" slope="0.431373" intercept="0"/></feComponentTransfer><feGaussianBlur stdDeviation="0.528934 0.529934"/></filter><filter id="fx3" x="-10%" y="-10%" width="120%" height="120%" filterUnits="userSpaceOnUse" primitiveUnits="userSpaceOnUse"><feComponentTransfer color-interpolation-filters="sRGB"><feFuncR type="discrete" tableValues="0 0"/><feFuncG type="discrete" tableValues="0 0"/><feFuncB type="discrete" tableValues="0 0"/><feFuncA type="linear" slope="0.431373" intercept="0"/></feComponentTransfer><feGaussianBlur stdDeviation="0.528934 0.529934"/></filter><filter id="fx4" x="-10%" y="-10%" width="120%" height="120%" filterUnits="userSpaceOnUse" primitiveUnits="userSpaceOnUse"><feComponentTransfer color-interpolation-filters="sRGB"><feFuncR type="discrete" tableValues="0 0"/><feFuncG type="discrete" tableValues="0 0"/><feFuncB type="discrete" tableValues="0 0"/><feFuncA type="linear" slope="0.431373" intercept="0"/></feComponentTransfer><feGaussianBlur stdDeviation="0.528934 0.529934"/></filter><filter id="fx5" x="-10%" y="-10%" width="120%" height="120%" filterUnits="userSpaceOnUse" primitiveUnits="userSpaceOnUse"><feComponentTransfer color-interpolation-filters="sRGB"><feFuncR type="discrete" tableValues="0 0"/><feFuncG type="discrete" tableValues="0 0"/><feFuncB type="discrete" tableValues="0 0"/><feFuncA type="linear" slope="0.431373" intercept="0"/></feComponentTransfer><feGaussianBlur stdDeviation="0.528934 0.529934"/></filter><filter id="fx6" x="-10%" y="-10%" width="120%" height="120%" filterUnits="userSpaceOnUse" primitiveUnits="userSpaceOnUse"><feComponentTransfer color-interpolation-filters="sRGB"><feFuncR type="discrete" tableValues="0 0"/><feFuncG type="discrete" tableValues="0 0"/><feFuncB type="discrete" tableValues="0 0"/><feFuncA type="linear" slope="0.431373" intercept="0"/></feComponentTransfer><feGaussianBlur stdDeviation="0.671188 0.672457"/></filter><filter id="fx7" x="-10%" y="-10%" width="120%" height="120%" filterUnits="userSpaceOnUse" primitiveUnits="userSpaceOnUse"><feComponentTransfer color-interpolation-filters="sRGB"><feFuncR type="discrete" tableValues="0 0"/><feFuncG type="discrete" tableValues="0 0"/><feFuncB type="discrete" tableValues="0 0"/><feFuncA type="linear" slope="0.431373" intercept="0"/></feComponentTransfer><feGaussianBlur stdDeviation="0.671188 0.672457"/></filter><clipPath id="clip8"><rect x="0" y="0" width="1280" height="265"/></clipPath><linearGradient x1="440.652" y1="167.782" x2="316.372" y2="167.782" gradientUnits="userSpaceOnUse" spreadMethod="reflect" id="fill9"><stop offset="0" stop-color="#203864"/><stop offset="0.5" stop-color="#B4C7E7"/><stop offset="1" stop-color="#DAE3F3"/></linearGradient><linearGradient x1="575.781" y1="166.029" x2="452.355" y2="166.029" gradientUnits="userSpaceOnUse" spreadMethod="reflect" id="fill10"><stop offset="0" stop-color="#203864"/><stop offset="0.5" stop-color="#B4C7E7"/><stop offset="1" stop-color="#DAE3F3"/></linearGradient><linearGradient x1="845.781" y1="168.033" x2="722.355" y2="168.033" gradientUnits="userSpaceOnUse" spreadMethod="reflect" id="fill11"><stop offset="0" stop-color="#203864"/><stop offset="0.5" stop-color="#B4C7E7"/><stop offset="1" stop-color="#DAE3F3"/></linearGradient><linearGradient x1="710.652" y1="167.782" x2="586.372" y2="167.782" gradientUnits="userSpaceOnUse" spreadMethod="reflect" id="fill12"><stop offset="0" stop-color="#203864"/><stop offset="0.5" stop-color="#B4C7E7"/><stop offset="1" stop-color="#DAE3F3"/></linearGradient><clipPath id="clip13"><rect x="16" y="16" width="33" height="15"/></clipPath><clipPath id="clip14"><rect x="15" y="16" width="34" height="15"/></clipPath><clipPath id="clip15"><rect x="17" y="16" width="22" height="15"/></clipPath><clipPath id="clip16"><rect x="15" y="16" width="12" height="15"/></clipPath><clipPath id="clip17"><rect x="16" y="16" width="22" height="15"/></clipPath><clipPath id="clip18"><rect x="15" y="16" width="12" height="15"/></clipPath><clipPath id="clip19"><rect x="21" y="20" width="20" height="26"/></clipPath><clipPath id="clip20"><rect x="21" y="20" width="21" height="26"/></clipPath><linearGradient x1="826" y1="48.0907" x2="301" y2="48.0907" gradientUnits="userSpaceOnUse" spreadMethod="reflect" id="fill21"><stop offset="0" stop-color="#17CF8A"/><stop offset="0.00546448" stop-color="#18CF8A"/><stop offset="0.010929" stop-color="#1ACF8B"/><stop offset="0.0163934" stop-color="#1CD08C"/><stop offset="0.0218579" stop-color="#1ED08D"/><stop offset="0.0273224" stop-color="#20D18E"/><stop offset="0.0327869" stop-color="#22D18F"/><stop offset="0.0382514" stop-color="#23D190"/><stop offset="0.0437158" stop-color="#25D291"/><stop offset="0.0491803" stop-color="#27D292"/><stop offset="0.0546448" stop-color="#29D393"/><stop offset="0.0601093" stop-color="#2BD394"/><stop offset="0.0655738" stop-color="#2CD495"/><stop offset="0.0710383" stop-color="#2ED496"/><stop offset="0.0765027" stop-color="#30D497"/><stop offset="0.0819672" stop-color="#32D598"/><stop offset="0.0874317" stop-color="#34D598"/><stop offset="0.0928962" stop-color="#35D699"/><stop offset="0.0983607" stop-color="#37D69A"/><stop offset="0.103825" stop-color="#39D69B"/><stop offset="0.10929" stop-color="#3AD79C"/><stop offset="0.114754" stop-color="#3CD79D"/><stop offset="0.120219" stop-color="#3ED79E"/><stop offset="0.125683" stop-color="#3FD89F"/><stop offset="0.131148" stop-color="#41D8A0"/><stop offset="0.136612" stop-color="#43D9A0"/><stop offset="0.142077" stop-color="#44D9A1"/><stop offset="0.147541" stop-color="#46D9A2"/><stop offset="0.153005" stop-color="#48DAA3"/><stop offset="0.15847" stop-color="#49DAA4"/><stop offset="0.163934" stop-color="#4BDAA5"/><stop offset="0.169399" stop-color="#4DDBA5"/><stop offset="0.174863" stop-color="#4EDBA6"/><stop offset="0.180328" stop-color="#50DCA7"/><stop offset="0.185792" stop-color="#51DCA8"/><stop offset="0.191257" stop-color="#53DCA9"/><stop offset="0.196721" stop-color="#54DDA9"/><stop offset="0.202186" stop-color="#56DDAA"/><stop offset="0.20765" stop-color="#58DDAB"/><stop offset="0.213115" stop-color="#59DEAC"/><stop offset="0.218579" stop-color="#5BDEAD"/><stop offset="0.224044" stop-color="#5CDEAD"/><stop offset="0.229508" stop-color="#5EDFAE"/><stop offset="0.234973" stop-color="#5FDFAF"/><stop offset="0.240437" stop-color="#61DFB0"/><stop offset="0.245902" stop-color="#62E0B1"/><stop offset="0.251366" stop-color="#64E0B1"/><stop offset="0.256831" stop-color="#65E0B2"/><stop offset="0.262295" stop-color="#66E1B3"/><stop offset="0.26776" stop-color="#68E1B4"/><stop offset="0.273224" stop-color="#69E1B4"/><stop offset="0.278689" stop-color="#6BE2B5"/><stop offset="0.284153" stop-color="#6CE2B6"/><stop offset="0.289617" stop-color="#6EE2B6"/><stop offset="0.295082" stop-color="#6FE3B7"/><stop offset="0.300546" stop-color="#70E3B8"/><stop offset="0.306011" stop-color="#72E3B9"/><stop offset="0.311475" stop-color="#73E4B9"/><stop offset="0.31694" stop-color="#74E4BA"/><stop offset="0.322404" stop-color="#76E4BB"/><stop offset="0.327869" stop-color="#77E5BB"/><stop offset="0.333333" stop-color="#78E5BC"/><stop offset="0.338798" stop-color="#7AE5BD"/><stop offset="0.344262" stop-color="#7BE5BD"/><stop offset="0.349727" stop-color="#7CE6BE"/><stop offset="0.355191" stop-color="#7EE6BF"/><stop offset="0.360656" stop-color="#7FE6BF"/><stop offset="0.36612" stop-color="#80E7C0"/><stop offset="0.371585" stop-color="#81E7C1"/><stop offset="0.377049" stop-color="#83E7C1"/><stop offset="0.382514" stop-color="#84E7C2"/><stop offset="0.387978" stop-color="#85E8C3"/><stop offset="0.393443" stop-color="#86E8C3"/><stop offset="0.398907" stop-color="#88E8C4"/><stop offset="0.404372" stop-color="#89E9C5"/><stop offset="0.409836" stop-color="#8AE9C5"/><stop offset="0.415301" stop-color="#8BE9C6"/><stop offset="0.420765" stop-color="#8CE9C6"/><stop offset="0.42623" stop-color="#8EEAC7"/><stop offset="0.431694" stop-color="#8FEAC8"/><stop offset="0.437158" stop-color="#90EAC8"/><stop offset="0.442623" stop-color="#91EAC9"/><stop offset="0.448087" stop-color="#92EBC9"/><stop offset="0.453552" stop-color="#93EBCA"/><stop offset="0.459016" stop-color="#94EBCA"/><stop offset="0.464481" stop-color="#95EBCB"/><stop offset="0.469945" stop-color="#97ECCC"/><stop offset="0.47541" stop-color="#98ECCC"/><stop offset="0.480874" stop-color="#99ECCD"/><stop offset="0.486339" stop-color="#9AECCD"/><stop offset="0.491803" stop-color="#9BEDCE"/><stop offset="0.497268" stop-color="#9CEDCE"/><stop offset="0.502732" stop-color="#9DEDCF"/><stop offset="0.508197" stop-color="#9EEDCF"/><stop offset="0.513661" stop-color="#9FEED0"/><stop offset="0.519126" stop-color="#A0EED0"/><stop offset="0.52459" stop-color="#A1EED1"/><stop offset="0.530055" stop-color="#A2EED1"/><stop offset="0.535519" stop-color="#A3EFD2"/><stop offset="0.540984" stop-color="#A4EFD2"/><stop offset="0.546448" stop-color="#A5EFD3"/><stop offset="0.551913" stop-color="#A6EFD3"/><stop offset="0.557377" stop-color="#A7EFD4"/><stop offset="0.562842" stop-color="#A8F0D4"/><stop offset="0.568306" stop-color="#A8F0D5"/><stop offset="0.57377" stop-color="#A9F0D5"/><stop offset="0.579235" stop-color="#AAF0D6"/><stop offset="0.584699" stop-color="#ABF0D6"/><stop offset="0.590164" stop-color="#ACF1D7"/><stop offset="0.595628" stop-color="#ADF1D7"/><stop offset="0.601093" stop-color="#AEF1D8"/><stop offset="0.606557" stop-color="#AEF1D8"/><stop offset="0.612022" stop-color="#AFF1D8"/><stop offset="0.617486" stop-color="#B0F2D9"/><stop offset="0.622951" stop-color="#B1F2D9"/><stop offset="0.628415" stop-color="#B2F2DA"/><stop offset="0.63388" stop-color="#B3F2DA"/><stop offset="0.639344" stop-color="#B3F2DA"/><stop offset="0.644809" stop-color="#B4F2DB"/><stop offset="0.650273" stop-color="#B5F3DB"/><stop offset="0.655738" stop-color="#B6F3DC"/><stop offset="0.661202" stop-color="#B6F3DC"/><stop offset="0.666667" stop-color="#B7F3DC"/><stop offset="0.672131" stop-color="#B8F3DD"/><stop offset="0.677596" stop-color="#B8F3DD"/><stop offset="0.68306" stop-color="#B9F4DD"/><stop offset="0.688525" stop-color="#BAF4DE"/><stop offset="0.693989" stop-color="#BBF4DE"/><stop offset="0.699454" stop-color="#BBF4DF"/><stop offset="0.704918" stop-color="#BCF4DF"/><stop offset="0.710383" stop-color="#BCF4DF"/><stop offset="0.715847" stop-color="#BDF5E0"/><stop offset="0.721311" stop-color="#BEF5E0"/><stop offset="0.726776" stop-color="#BEF5E0"/><stop offset="0.73224" stop-color="#BFF5E0"/><stop offset="0.737705" stop-color="#C0F5E1"/><stop offset="0.743169" stop-color="#C0F5E1"/><stop offset="0.748634" stop-color="#C1F5E1"/><stop offset="0.754098" stop-color="#C1F5E2"/><stop offset="0.759563" stop-color="#C2F6E2"/><stop offset="0.765027" stop-color="#C2F6E2"/><stop offset="0.770492" stop-color="#C3F6E2"/><stop offset="0.775956" stop-color="#C3F6E3"/><stop offset="0.781421" stop-color="#C4F6E3"/><stop offset="0.786885" stop-color="#C4F6E3"/><stop offset="0.79235" stop-color="#C5F6E4"/><stop offset="0.797814" stop-color="#C5F6E4"/><stop offset="0.803279" stop-color="#C6F7E4"/><stop offset="0.808743" stop-color="#C6F7E4"/><stop offset="0.814208" stop-color="#C7F7E4"/><stop offset="0.819672" stop-color="#C7F7E5"/><stop offset="0.825137" stop-color="#C8F7E5"/><stop offset="0.830601" stop-color="#C8F7E5"/><stop offset="0.836066" stop-color="#C8F7E5"/><stop offset="0.84153" stop-color="#C9F7E5"/><stop offset="0.846995" stop-color="#C9F7E6"/><stop offset="0.852459" stop-color="#C9F7E6"/><stop offset="0.857924" stop-color="#CAF7E6"/><stop offset="0.863388" stop-color="#CAF7E6"/><stop offset="0.868852" stop-color="#CAF8E6"/><stop offset="0.874317" stop-color="#CBF8E7"/><stop offset="0.879781" stop-color="#CBF8E7"/><stop offset="0.885246" stop-color="#CBF8E7"/><stop offset="0.89071" stop-color="#CCF8E7"/><stop offset="0.896175" stop-color="#CCF8E7"/><stop offset="0.901639" stop-color="#CCF8E7"/><stop offset="0.907104" stop-color="#CCF8E7"/><stop offset="0.912568" stop-color="#CDF8E8"/><stop offset="0.918033" stop-color="#CDF8E8"/><stop offset="0.923497" stop-color="#CDF8E8"/><stop offset="0.928962" stop-color="#CDF8E8"/><stop offset="0.934426" stop-color="#CDF8E8"/><stop offset="0.939891" stop-color="#CEF8E8"/><stop offset="0.945355" stop-color="#CEF8E8"/><stop offset="0.95082" stop-color="#CEF8E8"/><stop offset="0.956284" stop-color="#CEF8E8"/><stop offset="0.961749" stop-color="#CEF8E8"/><stop offset="0.967213" stop-color="#CEF8E8"/><stop offset="0.972678" stop-color="#CEF8E8"/><stop offset="0.978142" stop-color="#CEF8E8"/><stop offset="0.983607" stop-color="#CEF8E8"/><stop offset="0.989071" stop-color="#CEF8E8"/><stop offset="0.994536" stop-color="#CEF8E8"/><stop offset="1" stop-color="#CFF9E9"/></linearGradient></defs><g clip-path="url(#clip8)"><rect x="0" y="0" width="1280" height="265.501" fill="#FFFFFF"/><path d="M316.372 190.235C320.34 157.793 350.029 134.688 382.684 138.63 406.295 141.48 425.935 158.012 432.644 180.681L440.652 180.681 426.625 197.372 406.902 180.681 414.718 180.681C405.408 159.235 380.302 149.322 358.643 158.54 344.683 164.482 334.965 177.323 333.126 192.257Z" stroke="#172C51" stroke-width="1.33333" stroke-miterlimit="8" fill="url(#fill9)" fill-rule="evenodd"/><path d="M452.355 188.79C456.224 156.065 485.618 132.706 518.007 136.616 541.568 139.46 561.156 156.274 567.742 179.307L575.781 179.307 561.625 195.87 542.031 179.307 549.896 179.307C540.872 157.53 516.144 147.291 494.662 156.439 480.663 162.4 470.904 175.528 469.108 190.813Z" stroke="#172C51" stroke-width="1.33333" stroke-miterlimit="8" fill="url(#fill10)" fill-rule="evenodd"/><path d="M722.355 190.794C726.224 158.069 755.618 134.71 788.007 138.62 811.568 141.464 831.156 158.278 837.742 181.311L845.781 181.311 831.625 197.873 812.031 181.311 819.896 181.311C810.872 159.534 786.144 149.295 764.662 158.442 750.663 164.404 740.904 177.531 739.108 192.816Z" stroke="#172C51" stroke-width="1.33333" stroke-miterlimit="8" fill="url(#fill11)" fill-rule="evenodd"/><path d="M586.372 190.235C590.34 157.793 620.029 134.688 652.684 138.63 676.295 141.48 695.935 158.012 702.644 180.681L710.652 180.681 696.625 197.372 676.902 180.681 684.718 180.681C675.408 159.235 650.302 149.322 628.643 158.54 614.683 164.482 604.965 177.323 603.126 192.257Z" stroke="#172C51" stroke-width="1.33333" stroke-miterlimit="8" fill="url(#fill12)" fill-rule="evenodd"/><text font-family="Calibri,Calibri_MSFontService,sans-serif" font-weight="700" font-size="16" transform="matrix(1 0 0 1.00189 355.587 191)">-</text><text font-family="Calibri,Calibri_MSFontService,sans-serif" font-weight="700" font-size="16" transform="matrix(1 0 0 1.00189 360.421 191)">202</text><text font-family="Calibri,Calibri_MSFontService,sans-serif" font-weight="400" font-size="14" transform="matrix(1 0 0 1.00189 323.841 208)">duplicate/triplet</text><text font-family="Calibri,Calibri_MSFontService,sans-serif" font-weight="400" font-size="14" transform="matrix(1 0 0 1.00189 321.754 225)">records removed</text><text font-family="Calibri,Calibri_MSFontService,sans-serif" font-weight="700" font-size="16" transform="matrix(1 0 0 1.00189 493.454 186)">-</text><text font-family="Calibri,Calibri_MSFontService,sans-serif" font-weight="700" font-size="16" transform="matrix(1 0 0 1.00189 498.287 186)">56</text><text font-family="Calibri,Calibri_MSFontService,sans-serif" font-weight="700" font-size="16" transform="matrix(1 0 0 1.00189 514.62 186)">0</text><text font-family="Calibri,Calibri_MSFontService,sans-serif" font-weight="400" font-size="14" transform="matrix(1 0 0 1.00189 475.954 203)">excluded by</text><text font-family="Calibri,Calibri_MSFontService,sans-serif" font-weight="400" font-size="14" transform="matrix(1 0 0 1.00189 482.12 220)">reviewers</text><text font-family="Calibri,Calibri_MSFontService,sans-serif" font-weight="700" font-size="16" transform="matrix(1 0 0 1.00189 637.801 192)">-</text><text font-family="Calibri,Calibri_MSFontService,sans-serif" font-weight="700" font-size="16" transform="matrix(1 0 0 1.00189 642.634 192)">1</text><text font-family="Calibri,Calibri_MSFontService,sans-serif" font-weight="400" font-size="14" transform="matrix(1 0 0 1.00189 606.967 209)">not</text><text font-family="Calibri,Calibri_MSFontService,sans-serif" font-weight="400" font-size="14" transform="matrix(1 0 0 1.00189 629.467 209)">retrieved</text><text font-family="Calibri,Calibri_MSFontService,sans-serif" font-weight="700" font-size="16" transform="matrix(1 0 0 1.00189 771.953 191)">-</text><text font-family="Calibri,Calibri_MSFontService,sans-serif" font-weight="700" font-size="16" transform="matrix(1 0 0 1.00189 776.787 191)">27</text><text font-family="Calibri,Calibri_MSFontService,sans-serif" font-weight="400" font-size="14" transform="matrix(1 0 0 1.00189 748.207 209)">excluded</text><text font-family="Calibri,Calibri_MSFontService,sans-serif" font-weight="400" font-size="15" transform="matrix(1 0 0 1.00189 802.54 209)">by</text><text font-family="Calibri,Calibri_MSFontService,sans-serif" font-weight="400" font-size="15" transform="matrix(1 0 0 1.00189 747.62 227)">reviewers</text><text font-family="Calibri,Calibri_MSFontService,sans-serif" font-weight="400" font-size="10" transform="matrix(1 0 0 1.00189 809.453 223)">1)</text><rect x="973" y="37.0699" width="270" height="191.361" fill="#D4D8E4"/><text font-family="Calibri,Calibri_MSFontService,sans-serif" font-weight="700" font-size="10" transform="matrix(1 0 0 1.00189 982.479 51)">1)</text><text font-family="Calibri,Calibri_MSFontService,sans-serif" font-weight="700" font-size="14" transform="matrix(1 0 0 1.00189 990.479 55)">Reasons for exclusion:</text><text font-family="Calibri,Calibri_MSFontService,sans-serif" font-weight="400" font-size="14" transform="matrix(1 0 0 1.00189 982.479 91)">•</text><text font-family="Calibri,Calibri_MSFontService,sans-serif" font-weight="400" font-size="14" transform="matrix(1 0 0 1.00189 992.646 91)">insufficient data reporting (</text><text font-family="Calibri,Calibri_MSFontService,sans-serif" font-style="italic" font-weight="400" font-size="14" transform="matrix(1 0 0 1.00189 1148.15 91)">n</text><text font-family="Calibri,Calibri_MSFontService,sans-serif" font-weight="400" font-size="14" transform="matrix(1 0 0 1.00189 1161.65 91)">= 10)</text><text fill="#808080" font-family="Calibri,Calibri_MSFontService,sans-serif" font-weight="400" font-size="14" transform="matrix(1 0 0 1.00189 1190.31 91)">​</text><text font-family="Calibri,Calibri_MSFontService,sans-serif" font-weight="400" font-size="14" transform="matrix(1 0 0 1.00189 982.479 111)">•</text><text font-family="Calibri,Calibri_MSFontService,sans-serif" font-weight="400" font-size="14" transform="matrix(1 0 0 1.00189 992.646 111)">language (</text><text font-family="Calibri,Calibri_MSFontService,sans-serif" font-style="italic" font-weight="400" font-size="14" transform="matrix(1 0 0 1.00189 1051.48 111)">n</text><text font-family="Calibri,Calibri_MSFontService,sans-serif" font-weight="400" font-size="14" transform="matrix(1 0 0 1.00189 1061.81 111)">= 8)</text><text fill="#808080" font-family="Calibri,Calibri_MSFontService,sans-serif" font-weight="400" font-size="14" transform="matrix(1 0 0 1.00189 1083.31 111)">​</text><text font-family="Calibri,Calibri_MSFontService,sans-serif" font-weight="400" font-size="14" transform="matrix(1 0 0 1.00189 982.479 131)">•</text><text font-family="Calibri,Calibri_MSFontService,sans-serif" font-weight="400" font-size="14" transform="matrix(1 0 0 1.00189 992.646 131)">other research question (</text><text font-family="Calibri,Calibri_MSFontService,sans-serif" font-style="italic" font-weight="400" font-size="14" transform="matrix(1 0 0 1.00189 1136.31 131)">n</text><text font-family="Calibri,Calibri_MSFontService,sans-serif" font-weight="400" font-size="14" transform="matrix(1 0 0 1.00189 1146.65 131)">= 2)</text><text fill="#808080" font-family="Calibri,Calibri_MSFontService,sans-serif" font-weight="400" font-size="14" transform="matrix(1 0 0 1.00189 1168.15 131)">​</text><text font-family="Calibri,Calibri_MSFontService,sans-serif" font-weight="400" font-size="14" transform="matrix(1 0 0 1.00189 982.479 151)">•</text><text font-family="Calibri,Calibri_MSFontService,sans-serif" font-weight="400" font-size="14" transform="matrix(1 0 0 1.00189 992.646 151)">study design</text><text font-family="Calibri,Calibri_MSFontService,sans-serif" font-weight="400" font-size="14" transform="matrix(1 0 0 1.00189 1067.15 151)">(</text><text font-family="Calibri,Calibri_MSFontService,sans-serif" font-style="italic" font-weight="400" font-size="14" transform="matrix(1 0 0 1.00189 1071.31 151)">n</text><text font-family="Calibri,Calibri_MSFontService,sans-serif" font-weight="400" font-size="14" transform="matrix(1 0 0 1.00189 1081.65 151)">= 6)</text><text fill="#808080" font-family="Calibri,Calibri_MSFontService,sans-serif" font-weight="400" font-size="14" transform="matrix(1 0 0 1.00189 1103.15 151)">​</text><text font-family="Calibri,Calibri_MSFontService,sans-serif" font-weight="400" font-size="14" transform="matrix(1 0 0 1.00189 982.479 172)">•</text><text font-family="Calibri,Calibri_MSFontService,sans-serif" font-weight="400" font-size="14" transform="matrix(1 0 0 1.00189 992.646 172)">duplicate (</text><text font-family="Calibri,Calibri_MSFontService,sans-serif" font-style="italic" font-weight="400" font-size="14" transform="matrix(1 0 0 1.00189 1052.65 172)">n</text><text font-family="Calibri,Calibri_MSFontService,sans-serif" font-weight="400" font-size="14" transform="matrix(1 0 0 1.00189 1062.98 172)">= 1)</text><text fill="#808080" font-family="Calibri,Calibri_MSFontService,sans-serif" font-weight="400" font-size="14" transform="matrix(1 0 0 1.00189 1084.48 172)">​</text><path d="M274 70.1323 398.898 70.1323 431 102.193 398.898 134.253 274 134.253 274 70.1323Z" stroke="#FFFFFF" stroke-width="2" stroke-miterlimit="8" fill="#CFF9E9" fill-rule="evenodd"/><g clip-path="url(#clip13)" filter="url(#fx0)" transform="translate(314 79)"><g><path d="M10.0078-3.55811C10.0078-2.95654 9.90356-2.41992 9.69507-1.94824 9.48657-1.47656 9.17896-1.07837 8.77222-0.753662 8.36548-0.428955 7.86133-0.182861 7.25977-0.0153809 6.6582 0.1521 5.96435 0.23584 5.17822 0.23584 4.42627 0.23584 3.7666 0.160645 3.19922 0.0102539 2.63184-0.140137 2.15674-0.360596 1.77393-0.651123 1.39111-0.94165 1.104-1.30054 0.912598-1.72778 0.721191-2.15503 0.625488-2.64551 0.625488-3.19922 0.625488-3.5752 0.681885-3.92895 0.794678-4.2605 0.907471-4.59204 1.07495-4.89966 1.29712-5.18335 1.51929-5.46704 1.79614-5.73364 2.12769-5.98315 2.45923-6.23267 2.84033-6.47021 3.271-6.6958 2.92236-6.88721 2.60791-7.09399 2.32764-7.31616 2.04736-7.53833 1.80811-7.78101 1.60986-8.04419 1.41162-8.30737 1.26123-8.59619 1.15869-8.91064 1.05615-9.2251 1.00488-9.56689 1.00488-9.93604 1.00488-10.4692 1.09888-10.9529 1.28687-11.387 1.47485-11.821 1.75513-12.197 2.12769-12.5149 2.50024-12.8328 2.9668-13.0771 3.52734-13.248 4.08789-13.4189 4.7373-13.5044 5.47559-13.5044 6.20703-13.5044 6.83423-13.4258 7.35718-13.2686 7.88013-13.1113 8.30908-12.8892 8.64404-12.6021 8.979-12.3149 9.22681-11.9714 9.38745-11.5715 9.5481-11.1716 9.62842-10.729 9.62842-10.2437 9.62842-9.92236 9.57544-9.60962 9.46948-9.30542 9.36353-9.00122 9.21484-8.7124 9.02344-8.43896 8.83203-8.16553 8.59619-7.90747 8.31592-7.66479 8.03564-7.42212 7.71777-7.20166 7.3623-7.00342 7.7793-6.78467 8.15186-6.55225 8.47998-6.30615 8.80811-6.06006 9.08496-5.79517 9.31055-5.51147 9.53613-5.22778 9.70874-4.92529 9.82837-4.604 9.948-4.28271 10.0078-3.93408 10.0078-3.55811ZM7.03418-9.99756C7.03418-10.2368 7-10.4521 6.93164-10.6436 6.86328-10.835 6.75561-10.9973 6.60864-11.1306 6.46167-11.2639 6.28052-11.3647 6.06519-11.4331 5.84985-11.5015 5.59521-11.5356 5.30127-11.5356 4.72705-11.5356 4.2998-11.4041 4.01953-11.1409 3.73926-10.8777 3.59912-10.5137 3.59912-10.0488 3.59912-9.83008 3.63501-9.62842 3.70679-9.44385 3.77856-9.25928 3.88965-9.08496 4.04004-8.9209 4.19043-8.75684 4.38525-8.59619 4.62451-8.43896 4.86377-8.28174 5.14746-8.11426 5.47559-7.93652 5.97461-8.23047 6.35913-8.54492 6.62915-8.87988 6.89917-9.21484 7.03418-9.5874 7.03418-9.99756ZM7.3418-3.37354C7.3418-3.62646 7.29907-3.85718 7.21362-4.06567 7.12817-4.27417 6.99487-4.4707 6.81372-4.65527 6.63257-4.83984 6.40527-5.01758 6.13184-5.18848 5.8584-5.35938 5.54053-5.53369 5.17822-5.71143 4.86377-5.54053 4.58691-5.36963 4.34766-5.19873 4.1084-5.02783 3.91016-4.84839 3.75293-4.6604 3.5957-4.47241 3.47778-4.27417 3.39917-4.06567 3.32056-3.85718 3.28125-3.6333 3.28125-3.39404 3.28125-2.86084 3.45386-2.4541 3.79907-2.17383 4.14429-1.89355 4.65869-1.75342 5.34229-1.75342 6.01221-1.75342 6.51294-1.89697 6.84448-2.18408 7.17602-2.47119 7.3418-2.86768 7.3418-3.37354ZM20.8411-4.42969C20.8411-3.75977 20.7386-3.1394 20.5335-2.5686 20.3284-1.9978 20.0277-1.50562 19.6312-1.09204 19.2347-0.678467 18.7459-0.35376 18.1649-0.11792 17.5838 0.11792 16.9139 0.23584 16.1551 0.23584 15.5399 0.23584 15.0033 0.165771 14.5452 0.0256348 14.0872-0.114502 13.6908-0.316162 13.3558-0.579346 13.0208-0.842529 12.7474-1.16211 12.5355-1.53809 12.3236-1.91406 12.1544-2.33789 12.0279-2.80957 11.9014-3.28125 11.8143-3.79395 11.7664-4.34766 11.7186-4.90137 11.6947-5.48926 11.6947-6.11133 11.6947-6.63086 11.7203-7.17432 11.7716-7.7417 11.8228-8.30908 11.922-8.86621 12.0689-9.41309 12.2159-9.95996 12.4227-10.4812 12.6893-10.9768 12.9559-11.4724 13.2994-11.9065 13.7198-12.2791 14.1402-12.6516 14.6495-12.9473 15.2476-13.166 15.8458-13.3848 16.555-13.4941 17.3753-13.4941 17.6351-13.4941 17.8966-13.4788 18.1597-13.448 18.4229-13.4172 18.6673-13.3779 18.8929-13.3301 19.1185-13.2822 19.3099-13.2275 19.4671-13.166 19.6243-13.1045 19.7286-13.0515 19.7799-13.0071 19.8311-12.9626 19.8704-12.9131 19.8978-12.8584 19.9251-12.8037 19.9473-12.7439 19.9644-12.679 19.9815-12.614 19.9935-12.5337 20.0003-12.438 20.0072-12.3423 20.0106-12.2261 20.0106-12.0894 20.0106-11.8774 20.0055-11.7014 19.9952-11.5613 19.9849-11.4211 19.9661-11.3118 19.9388-11.2332 19.9115-11.1545 19.8739-11.0981 19.826-11.064 19.7782-11.0298 19.7201-11.0127 19.6517-11.0127 19.5697-11.0127 19.4637-11.0349 19.3338-11.0793 19.2039-11.1238 19.0467-11.1733 18.8621-11.228 18.6776-11.2827 18.4605-11.3306 18.211-11.3716 17.9615-11.4126 17.6727-11.4331 17.3446-11.4331 16.7909-11.4331 16.3226-11.3306 15.9398-11.1255 15.557-10.9204 15.2459-10.6418 15.0067-10.2898 14.7674-9.93774 14.5931-9.5293 14.4837-9.06445 14.3743-8.59961 14.3162-8.10742 14.3094-7.58789 14.4598-7.68359 14.6324-7.7793 14.8272-7.875 15.0221-7.9707 15.234-8.05273 15.463-8.12109 15.692-8.18945 15.9398-8.24585 16.2064-8.29028 16.473-8.33472 16.7567-8.35693 17.0575-8.35693 17.7274-8.35693 18.3016-8.26465 18.7801-8.08008 19.2586-7.89551 19.65-7.63232 19.9542-7.29053 20.2584-6.94873 20.4823-6.53516 20.6258-6.0498 20.7694-5.56445 20.8411-5.02441 20.8411-4.42969ZM18.1956-4.17334C18.1956-4.52197 18.1649-4.82788 18.1034-5.09106 18.0418-5.35425 17.9427-5.57642 17.806-5.75757 17.6693-5.93872 17.4881-6.07544 17.2625-6.16772 17.0369-6.26001 16.7635-6.30615 16.4422-6.30615 16.2508-6.30615 16.0628-6.28906 15.8783-6.25488 15.6937-6.2207 15.5125-6.17285 15.3348-6.11133 15.1571-6.0498 14.9862-5.97632 14.8221-5.89087 14.658-5.80542 14.5042-5.71484 14.3607-5.61914 14.3607-4.8877 14.4017-4.27759 14.4837-3.78882 14.5658-3.30005 14.6871-2.91211 14.8477-2.625 15.0084-2.33789 15.21-2.13452 15.4527-2.01489 15.6954-1.89526 15.9774-1.83545 16.2987-1.83545 16.6131-1.83545 16.8883-1.89355 17.1241-2.00977 17.3599-2.12598 17.5565-2.29004 17.7137-2.50195 17.8709-2.71387 17.9906-2.96167 18.0726-3.24536 18.1546-3.52905 18.1956-3.83838 18.1956-4.17334ZM31.5002-7.23926C31.5002-6.69922 31.4728-6.14038 31.4181-5.56274 31.3634-4.98511 31.2592-4.41943 31.1054-3.86572 30.9516-3.31201 30.7397-2.78564 30.4696-2.28662 30.1996-1.7876 29.851-1.35181 29.4237-0.979248 28.9965-0.606689 28.477-0.311035 27.8652-0.0922852 27.2533 0.126465 26.5304 0.23584 25.6965 0.23584 25.4025 0.23584 25.1103 0.215332 24.8197 0.174316 24.5292 0.133301 24.2643 0.0820312 24.0251 0.0205078 23.7858-0.0410156 23.5824-0.105957 23.415-0.174316 23.2475-0.242676 23.1261-0.312744 23.0509-0.384521 22.9757-0.456299 22.9211-0.560547 22.8869-0.697266 22.8527-0.833984 22.8356-1.02539 22.8356-1.27148 22.8356-1.49707 22.8407-1.67822 22.851-1.81494 22.8612-1.95166 22.8818-2.05762 22.9125-2.13281 22.9433-2.20801 22.9809-2.25757 23.0253-2.28149 23.0697-2.30542 23.1227-2.31738 23.1842-2.31738 23.2663-2.31738 23.3825-2.29346 23.5329-2.24561 23.6833-2.19775 23.8661-2.14307 24.0815-2.08154 24.2968-2.02002 24.5412-1.96533 24.8146-1.91748 25.0881-1.86963 25.3923-1.8457 25.7272-1.8457 26.3014-1.8457 26.7868-1.94824 27.1833-2.15332 27.5798-2.3584 27.901-2.63525 28.1471-2.98389 28.3932-3.33252 28.5744-3.73584 28.6906-4.19385 28.8068-4.65186 28.8717-5.13379 28.8854-5.63965 28.571-5.44141 28.1916-5.2688 27.7472-5.12183 27.3029-4.97485 26.7936-4.90137 26.2194-4.90137 25.5153-4.90137 24.9172-4.99365 24.425-5.17822 23.9328-5.36279 23.5329-5.62939 23.2253-5.97803 22.9176-6.32666 22.6938-6.75049 22.5536-7.24951 22.4135-7.74853 22.3434-8.3125 22.3434-8.94141 22.3434-9.60449 22.4425-10.2146 22.6408-10.7717 22.839-11.3289 23.133-11.8108 23.5226-12.2175 23.9123-12.6243 24.3976-12.9404 24.9787-13.166 25.5597-13.3916 26.2331-13.5044 26.9987-13.5044 27.6139-13.5044 28.1523-13.4326 28.6137-13.2891 29.0751-13.1455 29.4716-12.9404 29.8031-12.6738 30.1347-12.4072 30.4115-12.0842 30.6337-11.7048 30.8559-11.3254 31.0302-10.9033 31.1567-10.4385 31.2831-9.97363 31.372-9.47119 31.4233-8.93115 31.4745-8.39111 31.5002-7.82715 31.5002-7.23926ZM28.8239-7.6084C28.8239-8.33984 28.7829-8.95166 28.7008-9.44385 28.6188-9.93604 28.4958-10.3291 28.3317-10.623 28.1676-10.917 27.9626-11.1255 27.7165-11.2485 27.4704-11.3716 27.1833-11.4331 26.8551-11.4331 26.5339-11.4331 26.257-11.3767 26.0246-11.2639 25.7922-11.1511 25.599-10.9922 25.4452-10.7871 25.2914-10.582 25.1769-10.3394 25.1017-10.0591 25.0265-9.77881 24.9889-9.47119 24.9889-9.13623 24.9889-8.77393 25.0214-8.45435 25.0863-8.17749 25.1513-7.90063 25.2538-7.67163 25.394-7.49048 25.5341-7.30933 25.717-7.17432 25.9425-7.08545 26.1681-6.99658 26.4416-6.95215 26.7629-6.95215 27.1593-6.95215 27.5336-7.01196 27.8857-7.13159 28.2377-7.25122 28.5505-7.41016 28.8239-7.6084Z" transform="matrix(1 0 0 1.00189 16.434 30)"/></g></g><text font-family="Calibri,Calibri_MSFontService,sans-serif" font-weight="700" font-size="21" transform="matrix(1 0 0 1.00189 329.312 108)">869</text><path d="M429.5 68.6295 527.474 68.6295 559.5 100.69 527.474 132.751 429.5 132.751 461.526 100.69 429.5 68.6295Z" stroke="#CFD5EA" stroke-width="1.33333" stroke-miterlimit="8" stroke-opacity="0.901961" fill="#A9F5D8" fill-rule="evenodd"/><g clip-path="url(#clip14)" filter="url(#fx1)" transform="translate(464 77)"><g><path d="M10.0078-4.42969C10.0078-3.75977 9.90527-3.1394 9.7002-2.5686 9.49512-1.9978 9.19434-1.50562 8.79785-1.09204 8.40137-0.678467 7.9126-0.35376 7.33154-0.11792 6.75049 0.11792 6.08057 0.23584 5.32178 0.23584 4.70654 0.23584 4.16992 0.165771 3.71191 0.0256348 3.25391-0.114502 2.85742-0.316162 2.52246-0.579346 2.1875-0.842529 1.91406-1.16211 1.70215-1.53809 1.49023-1.91406 1.32104-2.33789 1.19458-2.80957 1.06812-3.28125 0.980957-3.79395 0.933105-4.34766 0.885254-4.90137 0.861328-5.48926 0.861328-6.11133 0.861328-6.63086 0.886963-7.17432 0.938232-7.7417 0.989502-8.30908 1.08862-8.86621 1.2356-9.41309 1.38257-9.95996 1.58936-10.4812 1.85596-10.9768 2.12256-11.4724 2.46606-11.9065 2.88647-12.2791 3.30688-12.6516 3.81616-12.9473 4.41431-13.166 5.01245-13.3848 5.72168-13.4941 6.54199-13.4941 6.80176-13.4941 7.06323-13.4788 7.32642-13.448 7.5896-13.4172 7.83398-13.3779 8.05957-13.3301 8.28516-13.2822 8.47656-13.2275 8.63379-13.166 8.79102-13.1045 8.89526-13.0515 8.94653-13.0071 8.9978-12.9626 9.03711-12.9131 9.06445-12.8584 9.0918-12.8037 9.11401-12.7439 9.1311-12.679 9.14819-12.614 9.16016-12.5337 9.16699-12.438 9.17383-12.3423 9.17725-12.2261 9.17725-12.0894 9.17725-11.8774 9.17212-11.7014 9.16187-11.5613 9.15161-11.4211 9.13281-11.3118 9.10547-11.2332 9.07812-11.1545 9.04053-11.0981 8.99268-11.064 8.94482-11.0298 8.88672-11.0127 8.81836-11.0127 8.73633-11.0127 8.63037-11.0349 8.50049-11.0793 8.37061-11.1238 8.21338-11.1733 8.02881-11.228 7.84424-11.2827 7.6272-11.3306 7.37769-11.3716 7.12817-11.4126 6.83935-11.4331 6.51123-11.4331 5.95752-11.4331 5.48926-11.3306 5.10645-11.1255 4.72363-10.9204 4.4126-10.6418 4.17334-10.2898 3.93408-9.93774 3.75977-9.5293 3.65039-9.06445 3.54102-8.59961 3.48291-8.10742 3.47607-7.58789 3.62646-7.68359 3.79907-7.7793 3.9939-7.875 4.18872-7.9707 4.40063-8.05273 4.62964-8.12109 4.85864-8.18945 5.10645-8.24585 5.37305-8.29028 5.63965-8.33472 5.92334-8.35693 6.22412-8.35693 6.89404-8.35693 7.46826-8.26465 7.94678-8.08008 8.42529-7.89551 8.81665-7.63232 9.12085-7.29053 9.42505-6.94873 9.64893-6.53516 9.79248-6.0498 9.93604-5.56445 10.0078-5.02441 10.0078-4.42969ZM7.3623-4.17334C7.3623-4.52197 7.33154-4.82788 7.27002-5.09106 7.2085-5.35425 7.10937-5.57642 6.97266-5.75757 6.83594-5.93872 6.65478-6.07544 6.4292-6.16772 6.20361-6.26001 5.93018-6.30615 5.60889-6.30615 5.41748-6.30615 5.22949-6.28906 5.04492-6.25488 4.86035-6.2207 4.6792-6.17285 4.50146-6.11133 4.32373-6.0498 4.15283-5.97632 3.98877-5.89087 3.82471-5.80542 3.6709-5.71484 3.52734-5.61914 3.52734-4.8877 3.56836-4.27759 3.65039-3.78882 3.73242-3.30005 3.85376-2.91211 4.0144-2.625 4.17505-2.33789 4.37671-2.13452 4.61938-2.01489 4.86206-1.89526 5.14404-1.83545 5.46533-1.83545 5.77979-1.83545 6.05493-1.89355 6.29077-2.00977 6.52661-2.12598 6.72314-2.29004 6.88037-2.50195 7.0376-2.71387 7.15723-2.96167 7.23926-3.24536 7.32129-3.52905 7.3623-3.83838 7.3623-4.17334ZM20.8411-4.42969C20.8411-3.75977 20.7386-3.1394 20.5335-2.5686 20.3284-1.9978 20.0277-1.50562 19.6312-1.09204 19.2347-0.678467 18.7459-0.35376 18.1649-0.11792 17.5838 0.11792 16.9139 0.23584 16.1551 0.23584 15.5399 0.23584 15.0033 0.165771 14.5452 0.0256348 14.0872-0.114502 13.6908-0.316162 13.3558-0.579346 13.0208-0.842529 12.7474-1.16211 12.5355-1.53809 12.3236-1.91406 12.1544-2.33789 12.0279-2.80957 11.9014-3.28125 11.8143-3.79395 11.7664-4.34766 11.7186-4.90137 11.6947-5.48926 11.6947-6.11133 11.6947-6.63086 11.7203-7.17432 11.7716-7.7417 11.8228-8.30908 11.922-8.86621 12.0689-9.41309 12.2159-9.95996 12.4227-10.4812 12.6893-10.9768 12.9559-11.4724 13.2994-11.9065 13.7198-12.2791 14.1402-12.6516 14.6495-12.9473 15.2476-13.166 15.8458-13.3848 16.555-13.4941 17.3753-13.4941 17.6351-13.4941 17.8966-13.4788 18.1597-13.448 18.4229-13.4172 18.6673-13.3779 18.8929-13.3301 19.1185-13.2822 19.3099-13.2275 19.4671-13.166 19.6243-13.1045 19.7286-13.0515 19.7799-13.0071 19.8311-12.9626 19.8704-12.9131 19.8978-12.8584 19.9251-12.8037 19.9473-12.7439 19.9644-12.679 19.9815-12.614 19.9935-12.5337 20.0003-12.438 20.0072-12.3423 20.0106-12.2261 20.0106-12.0894 20.0106-11.8774 20.0055-11.7014 19.9952-11.5613 19.9849-11.4211 19.9661-11.3118 19.9388-11.2332 19.9115-11.1545 19.8739-11.0981 19.826-11.064 19.7782-11.0298 19.7201-11.0127 19.6517-11.0127 19.5697-11.0127 19.4637-11.0349 19.3338-11.0793 19.2039-11.1238 19.0467-11.1733 18.8621-11.228 18.6776-11.2827 18.4605-11.3306 18.211-11.3716 17.9615-11.4126 17.6727-11.4331 17.3446-11.4331 16.7909-11.4331 16.3226-11.3306 15.9398-11.1255 15.557-10.9204 15.2459-10.6418 15.0067-10.2898 14.7674-9.93774 14.5931-9.5293 14.4837-9.06445 14.3743-8.59961 14.3162-8.10742 14.3094-7.58789 14.4598-7.68359 14.6324-7.7793 14.8272-7.875 15.0221-7.9707 15.234-8.05273 15.463-8.12109 15.692-8.18945 15.9398-8.24585 16.2064-8.29028 16.473-8.33472 16.7567-8.35693 17.0575-8.35693 17.7274-8.35693 18.3016-8.26465 18.7801-8.08008 19.2586-7.89551 19.65-7.63232 19.9542-7.29053 20.2584-6.94873 20.4823-6.53516 20.6258-6.0498 20.7694-5.56445 20.8411-5.02441 20.8411-4.42969ZM18.1956-4.17334C18.1956-4.52197 18.1649-4.82788 18.1034-5.09106 18.0418-5.35425 17.9427-5.57642 17.806-5.75757 17.6693-5.93872 17.4881-6.07544 17.2625-6.16772 17.0369-6.26001 16.7635-6.30615 16.4422-6.30615 16.2508-6.30615 16.0628-6.28906 15.8783-6.25488 15.6937-6.2207 15.5125-6.17285 15.3348-6.11133 15.1571-6.0498 14.9862-5.97632 14.8221-5.89087 14.658-5.80542 14.5042-5.71484 14.3607-5.61914 14.3607-4.8877 14.4017-4.27759 14.4837-3.78882 14.5658-3.30005 14.6871-2.91211 14.8477-2.625 15.0084-2.33789 15.21-2.13452 15.4527-2.01489 15.6954-1.89526 15.9774-1.83545 16.2987-1.83545 16.6131-1.83545 16.8883-1.89355 17.1241-2.00977 17.3599-2.12598 17.5565-2.29004 17.7137-2.50195 17.8709-2.71387 17.9906-2.96167 18.0726-3.24536 18.1546-3.52905 18.1956-3.83838 18.1956-4.17334ZM31.4591-12.1304C31.4591-11.9321 31.4523-11.7595 31.4386-11.6125 31.425-11.4656 31.4062-11.3289 31.3822-11.2024 31.3583-11.0759 31.3258-10.9563 31.2848-10.8435 31.2438-10.7307 31.196-10.6094 31.1413-10.4795L26.7731-0.358887C26.7321-0.27002 26.6791-0.198242 26.6142-0.143555 26.5492-0.0888672 26.4587-0.0461426 26.3424-0.0153809 26.2262 0.0153809 26.0776 0.0358887 25.8964 0.0461426 25.7153 0.0563965 25.4914 0.0615234 25.2248 0.0615234 24.8625 0.0615234 24.5754 0.0495605 24.3634 0.0256348 24.1515 0.00170898 23.996-0.0358887 23.8969-0.0871582 23.7978-0.138428 23.7448-0.203369 23.738-0.281982 23.7311-0.360596 23.755-0.458008 23.8097-0.574219L28.506-10.9307 22.9279-10.9307C22.7843-10.9307 22.6767-11.0247 22.6049-11.2126 22.5331-11.4006 22.4972-11.6997 22.4972-12.1099 22.4972-12.3149 22.5075-12.491 22.528-12.6379 22.5485-12.7849 22.5776-12.9062 22.6152-13.002 22.6528-13.0977 22.6972-13.166 22.7485-13.207 22.7997-13.248 22.8595-13.2686 22.9279-13.2686L30.8132-13.2686C30.9362-13.2686 31.0387-13.2566 31.1208-13.2327 31.2028-13.2087 31.2677-13.1558 31.3156-13.0737 31.3634-12.9917 31.3993-12.8755 31.4233-12.7251 31.4472-12.5747 31.4591-12.3765 31.4591-12.1304Z" transform="matrix(1 0 0 1.00189 15.8471 30)"/></g></g><text font-family="Calibri,Calibri_MSFontService,sans-serif" font-weight="700" font-size="21" transform="matrix(1 0 0 1.00189 478.725 106)">667</text><path d="M558.5 70.6333 657.228 70.6333 689.5 102.694 657.228 134.754 558.5 134.754 590.772 102.694 558.5 70.6333Z" stroke="#CFD5EA" stroke-width="1.33333" stroke-miterlimit="8" stroke-opacity="0.901961" fill="#1EE69A" fill-rule="evenodd" fill-opacity="0.6"/><g clip-path="url(#clip15)" filter="url(#fx2)" transform="translate(593 79)"><g><path d="M9.67969-1.02539C9.67969-0.833984 9.66943-0.671631 9.64893-0.53833 9.62842-0.405029 9.59937-0.299072 9.56177-0.220459 9.52417-0.141846 9.48145-0.0854492 9.43359-0.0512695 9.38574-0.0170898 9.33105 0 9.26953 0L1.94824 0C1.89355 0 1.84229-0.0170898 1.79443-0.0512695 1.74658-0.0854492 1.70386-0.141846 1.66626-0.220459 1.62866-0.299072 1.59961-0.405029 1.5791-0.53833 1.55859-0.671631 1.54834-0.833984 1.54834-1.02539 1.54834-1.22363 1.55688-1.3894 1.57397-1.52271 1.59106-1.65601 1.61841-1.76367 1.65601-1.8457 1.6936-1.92773 1.73633-1.98755 1.78418-2.02515 1.83203-2.06274 1.88672-2.08154 1.94824-2.08154L4.41943-2.08154 4.41943-10.7153 2.28662-9.53613C2.12939-9.46094 2.00122-9.41479 1.9021-9.39771 1.80298-9.38062 1.72437-9.40112 1.66626-9.45923 1.60815-9.51733 1.56885-9.61816 1.54834-9.76172 1.52783-9.90527 1.51758-10.1069 1.51758-10.3667 1.51758-10.5308 1.521-10.6658 1.52783-10.7717 1.53467-10.8777 1.55176-10.9683 1.5791-11.0435 1.60645-11.1187 1.64404-11.1802 1.69189-11.228 1.73975-11.2759 1.80469-11.3271 1.88672-11.3818L4.7373-13.2275C4.77148-13.2549 4.81421-13.2771 4.86548-13.2942 4.91675-13.3113 4.9834-13.325 5.06543-13.3352 5.14746-13.3455 5.25513-13.3523 5.38843-13.3557 5.52173-13.3591 5.69434-13.3608 5.90625-13.3608 6.16602-13.3608 6.37622-13.3557 6.53687-13.3455 6.69751-13.3352 6.81885-13.3181 6.90088-13.2942 6.98291-13.2703 7.0376-13.2378 7.06494-13.1968 7.09228-13.1558 7.10596-13.1045 7.10596-13.043L7.10596-2.08154 9.26953-2.08154C9.33105-2.08154 9.38745-2.06274 9.43872-2.02515 9.48999-1.98755 9.53442-1.92773 9.57202-1.8457 9.60962-1.76367 9.63696-1.65601 9.65405-1.52271 9.67114-1.3894 9.67969-1.22363 9.67969-1.02539ZM20.9027-6.68555C20.9027-5.62598 20.8172-4.66895 20.6463-3.81445 20.4754-2.95996 20.1969-2.23193 19.8106-1.63037 19.4244-1.02881 18.922-0.567383 18.3033-0.246094 17.6847 0.0751953 16.9276 0.23584 16.0321 0.23584 15.1229 0.23584 14.3709 0.0803223 13.7762-0.230713 13.1815-0.541748 12.7098-0.989502 12.3612-1.57397 12.0125-2.15845 11.7681-2.8728 11.628-3.71704 11.4879-4.56128 11.4178-5.5166 11.4178-6.58301 11.4178-7.63574 11.505-8.59106 11.6793-9.44897 11.8536-10.3069 12.1339-11.0366 12.5201-11.6382 12.9063-12.2397 13.4088-12.7012 14.0274-13.0225 14.6461-13.3437 15.3997-13.5044 16.2884-13.5044 17.1976-13.5044 17.9513-13.3489 18.5494-13.0378 19.1475-12.7268 19.6209-12.2791 19.9696-11.6946 20.3182-11.1101 20.5609-10.3958 20.6976-9.55151 20.8343-8.70728 20.9027-7.75195 20.9027-6.68555ZM18.1854-6.55225C18.1854-7.18115 18.1683-7.73657 18.1341-8.21851 18.0999-8.70044 18.047-9.11914 17.9752-9.47461 17.9034-9.83008 17.8145-10.1309 17.7086-10.377 17.6026-10.623 17.4744-10.8196 17.3241-10.9666 17.1737-11.1135 17.0028-11.2178 16.8114-11.2793 16.62-11.3408 16.408-11.3716 16.1756-11.3716 15.7723-11.3716 15.439-11.2742 15.1759-11.0793 14.9127-10.8845 14.7042-10.5923 14.5504-10.2026 14.3966-9.81299 14.2889-9.32764 14.2274-8.74658 14.1659-8.16553 14.1351-7.48877 14.1351-6.71631 14.1351-5.77295 14.1727-4.99194 14.2479-4.37329 14.3231-3.75464 14.441-3.26245 14.6016-2.89673 14.7623-2.53101 14.9691-2.27466 15.222-2.12769 15.4749-1.98071 15.7791-1.90723 16.1346-1.90723 16.4012-1.90723 16.637-1.94995 16.8421-2.0354 17.0472-2.12085 17.2266-2.24902 17.3805-2.41992 17.5343-2.59082 17.6624-2.80615 17.765-3.06592 17.8675-3.32568 17.9513-3.62646 18.0162-3.96826 18.0811-4.31006 18.1256-4.69629 18.1495-5.12695 18.1734-5.55762 18.1854-6.03271 18.1854-6.55225Z" transform="matrix(1 0 0 1.00189 16.3891 30)"/></g></g><text font-family="Calibri,Calibri_MSFontService,sans-serif" font-weight="700" font-size="21" transform="matrix(1 0 0 1.00189 608.267 108)">10</text><g clip-path="url(#clip16)" filter="url(#fx3)" transform="translate(615 79)"><g><path d="M9.79248-12.1304C9.79248-11.9321 9.78564-11.7595 9.77197-11.6125 9.7583-11.4656 9.7395-11.3289 9.71558-11.2024 9.69165-11.0759 9.65918-10.9563 9.61816-10.8435 9.57715-10.7307 9.5293-10.6094 9.47461-10.4795L5.10645-0.358887C5.06543-0.27002 5.01245-0.198242 4.94751-0.143555 4.88257-0.0888672 4.79199-0.0461426 4.67578-0.0153809 4.55957 0.0153809 4.41089 0.0358887 4.22974 0.0461426 4.04858 0.0563965 3.82471 0.0615234 3.55811 0.0615234 3.1958 0.0615234 2.90869 0.0495605 2.69678 0.0256348 2.48486 0.00170898 2.32935-0.0358887 2.23022-0.0871582 2.1311-0.138428 2.07812-0.203369 2.07129-0.281982 2.06445-0.360596 2.08838-0.458008 2.14307-0.574219L6.83936-10.9307 1.26123-10.9307C1.11768-10.9307 1.01001-11.0247 0.938232-11.2126 0.866455-11.4006 0.830566-11.6997 0.830566-12.1099 0.830566-12.3149 0.84082-12.491 0.861328-12.6379 0.881836-12.7849 0.910889-12.9062 0.948486-13.002 0.986084-13.0977 1.03052-13.166 1.08179-13.207 1.13306-13.248 1.19287-13.2686 1.26123-13.2686L9.14648-13.2686C9.26953-13.2686 9.37207-13.2566 9.4541-13.2327 9.53613-13.2087 9.60107-13.1558 9.64893-13.0737 9.69678-12.9917 9.73267-12.8755 9.75659-12.7251 9.78052-12.5747 9.79248-12.3765 9.79248-12.1304Z" transform="matrix(1 0 0 1.00189 16.0557 30)"/></g></g><text font-family="Calibri,Calibri_MSFontService,sans-serif" font-weight="700" font-size="21" transform="matrix(1 0 0 1.00189 629.934 108)">7</text><path d="M687.5 70.6333 786.228 70.6333 818.5 102.694 786.228 134.754 687.5 134.754 719.772 102.694 687.5 70.6333Z" stroke="#CFD5EA" stroke-width="1.33333" stroke-miterlimit="8" stroke-opacity="0.901961" fill="#29E79F" fill-rule="evenodd"/><g clip-path="url(#clip17)" filter="url(#fx4)" transform="translate(722 79)"><g><path d="M9.67969-1.02539C9.67969-0.833984 9.66943-0.671631 9.64893-0.53833 9.62842-0.405029 9.59937-0.299072 9.56177-0.220459 9.52417-0.141846 9.48145-0.0854492 9.43359-0.0512695 9.38574-0.0170898 9.33105 0 9.26953 0L1.94824 0C1.89355 0 1.84229-0.0170898 1.79443-0.0512695 1.74658-0.0854492 1.70386-0.141846 1.66626-0.220459 1.62866-0.299072 1.59961-0.405029 1.5791-0.53833 1.55859-0.671631 1.54834-0.833984 1.54834-1.02539 1.54834-1.22363 1.55688-1.3894 1.57397-1.52271 1.59106-1.65601 1.61841-1.76367 1.65601-1.8457 1.6936-1.92773 1.73633-1.98755 1.78418-2.02515 1.83203-2.06274 1.88672-2.08154 1.94824-2.08154L4.41943-2.08154 4.41943-10.7153 2.28662-9.53613C2.12939-9.46094 2.00122-9.41479 1.9021-9.39771 1.80298-9.38062 1.72437-9.40112 1.66626-9.45923 1.60815-9.51733 1.56885-9.61816 1.54834-9.76172 1.52783-9.90527 1.51758-10.1069 1.51758-10.3667 1.51758-10.5308 1.521-10.6658 1.52783-10.7717 1.53467-10.8777 1.55176-10.9683 1.5791-11.0435 1.60645-11.1187 1.64404-11.1802 1.69189-11.228 1.73975-11.2759 1.80469-11.3271 1.88672-11.3818L4.7373-13.2275C4.77148-13.2549 4.81421-13.2771 4.86548-13.2942 4.91675-13.3113 4.9834-13.325 5.06543-13.3352 5.14746-13.3455 5.25513-13.3523 5.38843-13.3557 5.52173-13.3591 5.69434-13.3608 5.90625-13.3608 6.16602-13.3608 6.37622-13.3557 6.53687-13.3455 6.69751-13.3352 6.81885-13.3181 6.90088-13.2942 6.98291-13.2703 7.0376-13.2378 7.06494-13.1968 7.09228-13.1558 7.10596-13.1045 7.10596-13.043L7.10596-2.08154 9.26953-2.08154C9.33105-2.08154 9.38745-2.06274 9.43872-2.02515 9.48999-1.98755 9.53442-1.92773 9.57202-1.8457 9.60962-1.76367 9.63696-1.65601 9.65405-1.52271 9.67114-1.3894 9.67969-1.22363 9.67969-1.02539ZM20.9027-6.68555C20.9027-5.62598 20.8172-4.66895 20.6463-3.81445 20.4754-2.95996 20.1969-2.23193 19.8106-1.63037 19.4244-1.02881 18.922-0.567383 18.3033-0.246094 17.6847 0.0751953 16.9276 0.23584 16.0321 0.23584 15.1229 0.23584 14.3709 0.0803223 13.7762-0.230713 13.1815-0.541748 12.7098-0.989502 12.3612-1.57397 12.0125-2.15845 11.7681-2.8728 11.628-3.71704 11.4879-4.56128 11.4178-5.5166 11.4178-6.58301 11.4178-7.63574 11.505-8.59106 11.6793-9.44897 11.8536-10.3069 12.1339-11.0366 12.5201-11.6382 12.9063-12.2397 13.4088-12.7012 14.0274-13.0225 14.6461-13.3437 15.3997-13.5044 16.2884-13.5044 17.1976-13.5044 17.9513-13.3489 18.5494-13.0378 19.1475-12.7268 19.6209-12.2791 19.9696-11.6946 20.3182-11.1101 20.5609-10.3958 20.6976-9.55151 20.8343-8.70728 20.9027-7.75195 20.9027-6.68555ZM18.1854-6.55225C18.1854-7.18115 18.1683-7.73657 18.1341-8.21851 18.0999-8.70044 18.047-9.11914 17.9752-9.47461 17.9034-9.83008 17.8145-10.1309 17.7086-10.377 17.6026-10.623 17.4744-10.8196 17.3241-10.9666 17.1737-11.1135 17.0028-11.2178 16.8114-11.2793 16.62-11.3408 16.408-11.3716 16.1756-11.3716 15.7723-11.3716 15.439-11.2742 15.1759-11.0793 14.9127-10.8845 14.7042-10.5923 14.5504-10.2026 14.3966-9.81299 14.2889-9.32764 14.2274-8.74658 14.1659-8.16553 14.1351-7.48877 14.1351-6.71631 14.1351-5.77295 14.1727-4.99194 14.2479-4.37329 14.3231-3.75464 14.441-3.26245 14.6016-2.89673 14.7623-2.53101 14.9691-2.27466 15.222-2.12769 15.4749-1.98071 15.7791-1.90723 16.1346-1.90723 16.4012-1.90723 16.637-1.94995 16.8421-2.0354 17.0472-2.12085 17.2266-2.24902 17.3805-2.41992 17.5343-2.59082 17.6624-2.80615 17.765-3.06592 17.8675-3.32568 17.9513-3.62646 18.0162-3.96826 18.0811-4.31006 18.1256-4.69629 18.1495-5.12695 18.1734-5.55762 18.1854-6.03271 18.1854-6.55225Z" transform="matrix(1 0 0 1.00189 16.2642 30)"/></g></g><text font-family="Calibri,Calibri_MSFontService,sans-serif" font-weight="700" font-size="21" transform="matrix(1 0 0 1.00189 737.142 108)">10</text><g clip-path="url(#clip18)" filter="url(#fx5)" transform="translate(744 79)"><g><path d="M10.0078-4.42969C10.0078-3.75977 9.90527-3.1394 9.7002-2.5686 9.49512-1.9978 9.19434-1.50562 8.79785-1.09204 8.40137-0.678467 7.9126-0.35376 7.33154-0.11792 6.75049 0.11792 6.08057 0.23584 5.32178 0.23584 4.70654 0.23584 4.16992 0.165771 3.71191 0.0256348 3.25391-0.114502 2.85742-0.316162 2.52246-0.579346 2.1875-0.842529 1.91406-1.16211 1.70215-1.53809 1.49023-1.91406 1.32104-2.33789 1.19458-2.80957 1.06812-3.28125 0.980957-3.79395 0.933105-4.34766 0.885254-4.90137 0.861328-5.48926 0.861328-6.11133 0.861328-6.63086 0.886963-7.17432 0.938232-7.7417 0.989502-8.30908 1.08862-8.86621 1.2356-9.41309 1.38257-9.95996 1.58936-10.4812 1.85596-10.9768 2.12256-11.4724 2.46606-11.9065 2.88647-12.2791 3.30688-12.6516 3.81616-12.9473 4.41431-13.166 5.01245-13.3848 5.72168-13.4941 6.54199-13.4941 6.80176-13.4941 7.06323-13.4788 7.32642-13.448 7.5896-13.4172 7.83398-13.3779 8.05957-13.3301 8.28516-13.2822 8.47656-13.2275 8.63379-13.166 8.79102-13.1045 8.89526-13.0515 8.94653-13.0071 8.9978-12.9626 9.03711-12.9131 9.06445-12.8584 9.0918-12.8037 9.11401-12.7439 9.1311-12.679 9.14819-12.614 9.16016-12.5337 9.16699-12.438 9.17383-12.3423 9.17725-12.2261 9.17725-12.0894 9.17725-11.8774 9.17212-11.7014 9.16187-11.5613 9.15161-11.4211 9.13281-11.3118 9.10547-11.2332 9.07812-11.1545 9.04053-11.0981 8.99268-11.064 8.94482-11.0298 8.88672-11.0127 8.81836-11.0127 8.73633-11.0127 8.63037-11.0349 8.50049-11.0793 8.37061-11.1238 8.21338-11.1733 8.02881-11.228 7.84424-11.2827 7.6272-11.3306 7.37769-11.3716 7.12817-11.4126 6.83935-11.4331 6.51123-11.4331 5.95752-11.4331 5.48926-11.3306 5.10645-11.1255 4.72363-10.9204 4.4126-10.6418 4.17334-10.2898 3.93408-9.93774 3.75977-9.5293 3.65039-9.06445 3.54102-8.59961 3.48291-8.10742 3.47607-7.58789 3.62646-7.68359 3.79907-7.7793 3.9939-7.875 4.18872-7.9707 4.40063-8.05273 4.62964-8.12109 4.85864-8.18945 5.10645-8.24585 5.37305-8.29028 5.63965-8.33472 5.92334-8.35693 6.22412-8.35693 6.89404-8.35693 7.46826-8.26465 7.94678-8.08008 8.42529-7.89551 8.81665-7.63232 9.12085-7.29053 9.42505-6.94873 9.64893-6.53516 9.79248-6.0498 9.93604-5.56445 10.0078-5.02441 10.0078-4.42969ZM7.3623-4.17334C7.3623-4.52197 7.33154-4.82788 7.27002-5.09106 7.2085-5.35425 7.10937-5.57642 6.97266-5.75757 6.83594-5.93872 6.65478-6.07544 6.4292-6.16772 6.20361-6.26001 5.93018-6.30615 5.60889-6.30615 5.41748-6.30615 5.22949-6.28906 5.04492-6.25488 4.86035-6.2207 4.6792-6.17285 4.50146-6.11133 4.32373-6.0498 4.15283-5.97632 3.98877-5.89087 3.82471-5.80542 3.6709-5.71484 3.52734-5.61914 3.52734-4.8877 3.56836-4.27759 3.65039-3.78882 3.73242-3.30005 3.85376-2.91211 4.0144-2.625 4.17505-2.33789 4.37671-2.13452 4.61938-2.01489 4.86206-1.89526 5.14404-1.83545 5.46533-1.83545 5.77979-1.83545 6.05493-1.89355 6.29077-2.00977 6.52661-2.12598 6.72314-2.29004 6.88037-2.50195 7.0376-2.71387 7.15723-2.96167 7.23926-3.24536 7.32129-3.52905 7.3623-3.83838 7.3623-4.17334Z" transform="matrix(1 0 0 1.00189 15.9309 30)"/></g></g><text font-family="Calibri,Calibri_MSFontService,sans-serif" font-weight="700" font-size="21" transform="matrix(1 0 0 1.00189 758.809 108)">6</text><path d="M824.5 102.694 858.317 40.5766 949.048 40.5766C949.199 61.6376 949.349 82.6987 949.5 103.76 949.349 124.11 949.199 144.461 949.048 164.811L858.317 164.811 824.5 102.694Z" stroke="#CFD5EA" stroke-width="1.33333" stroke-miterlimit="8" stroke-opacity="0.901961" fill="#17CF8A" fill-rule="evenodd"/><g clip-path="url(#clip19)" filter="url(#fx6)" transform="translate(850 69)"><g><path d="M14.9219-18.4844C14.9219-18.1823 14.9115-17.9193 14.8906-17.6953 14.8698-17.4714 14.8411-17.263 14.8047-17.0703 14.7682-16.8776 14.7188-16.6953 14.6562-16.5234 14.5938-16.3516 14.5208-16.1667 14.4375-15.9688L7.78125-0.546875C7.71875-0.411458 7.63802-0.302083 7.53906-0.21875 7.4401-0.135417 7.30208-0.0703125 7.125-0.0234375 6.94792 0.0234375 6.72135 0.0546875 6.44531 0.0703125 6.16927 0.0859375 5.82812 0.09375 5.42188 0.09375 4.86979 0.09375 4.43229 0.0755208 4.10938 0.0390625 3.78646 0.00260417 3.54948-0.0546875 3.39844-0.132812 3.2474-0.210938 3.16667-0.309896 3.15625-0.429688 3.14583-0.549479 3.18229-0.697917 3.26562-0.875L10.4219-16.6562 1.92188-16.6562C1.70312-16.6562 1.53906-16.7995 1.42969-17.0859 1.32031-17.3724 1.26562-17.8281 1.26562-18.4531 1.26562-18.7656 1.28125-19.0339 1.3125-19.2578 1.34375-19.4818 1.38802-19.6667 1.44531-19.8125 1.5026-19.9583 1.57031-20.0625 1.64844-20.125 1.72656-20.1875 1.81771-20.2188 1.92188-20.2188L13.9375-20.2188C14.125-20.2188 14.2812-20.2005 14.4062-20.1641 14.5312-20.1276 14.6302-20.0469 14.7031-19.9219 14.776-19.7969 14.8307-19.6198 14.8672-19.3906 14.9036-19.1615 14.9219-18.8594 14.9219-18.4844Z" fill="#FFFFFF" transform="matrix(1 0 0 1.00189 23.0324 43)"/></g></g><text fill="#FFFFFF" font-family="Calibri,Calibri_MSFontService,sans-serif" font-weight="700" font-size="32" transform="matrix(1 0 0 1.00189 871.609 111)">7</text><g clip-path="url(#clip20)" filter="url(#fx7)" transform="translate(866 69)"><g><path d="M14.9844-11.0312C14.9844-10.2083 14.9427-9.35677 14.8594-8.47656 14.776-7.59635 14.6172-6.73438 14.3828-5.89062 14.1484-5.04688 13.8255-4.24479 13.4141-3.48438 13.0026-2.72396 12.4714-2.0599 11.8203-1.49219 11.1693-0.924479 10.3776-0.473958 9.44531-0.140625 8.51302 0.192708 7.41146 0.359375 6.14062 0.359375 5.69271 0.359375 5.2474 0.328125 4.80469 0.265625 4.36198 0.203125 3.95833 0.125 3.59375 0.03125 3.22917-0.0625 2.91927-0.161458 2.66406-0.265625 2.40885-0.369792 2.22396-0.476562 2.10938-0.585938 1.99479-0.695312 1.91146-0.854167 1.85938-1.0625 1.80729-1.27083 1.78125-1.5625 1.78125-1.9375 1.78125-2.28125 1.78906-2.55729 1.80469-2.76562 1.82031-2.97396 1.85156-3.13542 1.89844-3.25 1.94531-3.36458 2.0026-3.4401 2.07031-3.47656 2.13802-3.51302 2.21875-3.53125 2.3125-3.53125 2.4375-3.53125 2.61458-3.49479 2.84375-3.42188 3.07292-3.34896 3.35156-3.26562 3.67969-3.17188 4.00781-3.07812 4.38021-2.99479 4.79688-2.92188 5.21354-2.84896 5.67708-2.8125 6.1875-2.8125 7.0625-2.8125 7.80208-2.96875 8.40625-3.28125 9.01042-3.59375 9.5-4.01562 9.875-4.54688 10.25-5.07812 10.526-5.69271 10.7031-6.39062 10.8802-7.08854 10.9792-7.82292 11-8.59375 10.5208-8.29167 9.94271-8.02865 9.26562-7.80469 8.58854-7.58073 7.8125-7.46875 6.9375-7.46875 5.86458-7.46875 4.95312-7.60938 4.20312-7.89062 3.45312-8.17188 2.84375-8.57812 2.375-9.10938 1.90625-9.64062 1.5651-10.2865 1.35156-11.0469 1.13802-11.8073 1.03125-12.6667 1.03125-13.625 1.03125-14.6354 1.18229-15.5651 1.48438-16.4141 1.78646-17.263 2.23438-17.9974 2.82812-18.6172 3.42188-19.237 4.16146-19.7188 5.04688-20.0625 5.93229-20.4062 6.95833-20.5781 8.125-20.5781 9.0625-20.5781 9.88281-20.4688 10.5859-20.25 11.2891-20.0312 11.8932-19.7188 12.3984-19.3125 12.9036-18.9062 13.3255-18.4141 13.6641-17.8359 14.0026-17.2578 14.2682-16.6146 14.4609-15.9062 14.6536-15.1979 14.7891-14.4323 14.8672-13.6094 14.9453-12.7865 14.9844-11.9271 14.9844-11.0312ZM10.9062-11.5938C10.9062-12.7083 10.8438-13.6406 10.7188-14.3906 10.5938-15.1406 10.4062-15.7396 10.1562-16.1875 9.90625-16.6354 9.59375-16.9531 9.21875-17.1406 8.84375-17.3281 8.40625-17.4219 7.90625-17.4219 7.41667-17.4219 6.99479-17.3359 6.64062-17.1641 6.28646-16.9922 5.99219-16.75 5.75781-16.4375 5.52344-16.125 5.34896-15.7552 5.23438-15.3281 5.11979-14.901 5.0625-14.4323 5.0625-13.9219 5.0625-13.3698 5.11198-12.8828 5.21094-12.4609 5.3099-12.0391 5.46615-11.6901 5.67969-11.4141 5.89323-11.138 6.17188-10.9323 6.51562-10.7969 6.85937-10.6615 7.27604-10.5938 7.76562-10.5938 8.36979-10.5938 8.9401-10.6849 9.47656-10.8672 10.013-11.0495 10.4896-11.2917 10.9062-11.5938Z" fill="#FFFFFF" transform="matrix(1 0 0 1.00189 23.1991 43)"/></g></g><text fill="#FFFFFF" font-family="Calibri,Calibri_MSFontService,sans-serif" font-weight="700" font-size="32" transform="matrix(1 0 0 1.00189 887.775 111)">9</text><rect x="42" y="37.0699" width="253" height="125.236" fill="#CFF9E9"/><text font-family="Calibri,Calibri_MSFontService,sans-serif" font-weight="700" font-size="16" transform="matrix(1 0 0 1.00189 43.8421 54)">Records identified via databases</text><text font-family="Calibri,Calibri_MSFontService,sans-serif" font-weight="400" font-size="16" transform="matrix(1 0 0 1.00189 43.8421 92)">MEDLINE (PubMed)</text><text font-family="Calibri,Calibri_MSFontService,sans-serif" font-weight="400" font-size="16" transform="matrix(1 0 0 1.00189 187.842 92)">2</text><text font-family="Calibri,Calibri_MSFontService,sans-serif" font-weight="400" font-size="16" transform="matrix(1 0 0 1.00189 196.009 92)">72</text><text font-family="Calibri,Calibri_MSFontService,sans-serif" font-weight="400" font-size="16" transform="matrix(1 0 0 1.00189 43.8421 112)">Embase</text><text font-family="Calibri,Calibri_MSFontService,sans-serif" font-weight="400" font-size="16" transform="matrix(1 0 0 1.00189 187.842 112)">2</text><text font-family="Calibri,Calibri_MSFontService,sans-serif" font-weight="400" font-size="16" transform="matrix(1 0 0 1.00189 196.009 112)">99</text><text font-family="Calibri,Calibri_MSFontService,sans-serif" font-weight="400" font-size="16" transform="matrix(1 0 0 1.00189 43.8421 131)">Cochrane Library</text><text font-family="Calibri,Calibri_MSFontService,sans-serif" font-weight="400" font-size="16" transform="matrix(1 0 0 1.00189 187.842 131)">3</text><text font-family="Calibri,Calibri_MSFontService,sans-serif" font-weight="400" font-size="16" transform="matrix(1 0 0 1.00189 43.8421 150)">Google Scholar</text><text font-family="Calibri,Calibri_MSFontService,sans-serif" font-weight="400" font-size="16" transform="matrix(1 0 0 1.00189 187.842 150)">295</text><text font-family="Calibri,Calibri_MSFontService,sans-serif" font-weight="700" font-size="14" transform="matrix(1 0 0 1.00189 860.857 55)">included in</text><text font-family="Calibri,Calibri_MSFontService,sans-serif" font-weight="700" font-size="14" transform="matrix(1 0 0 1.00189 873.024 73)">review</text><text font-family="Calibri,Calibri_MSFontService,sans-serif" font-weight="700" font-size="14" transform="matrix(1 0 0 1.00189 869.777 147)">analysis</text><text font-family="Calibri,Calibri_MSFontService,sans-serif" font-weight="700" font-size="16" transform="matrix(1 0 0 1.00189 313.884 85)">identified</text><text font-family="Calibri,Calibri_MSFontService,sans-serif" font-weight="700" font-size="16" transform="matrix(1 0 0 1.00189 585.393 84)">sought for</text><text font-family="Calibri,Calibri_MSFontService,sans-serif" font-weight="700" font-size="16" transform="matrix(1 0 0 1.00189 593.499 127)">retrieval</text><text font-family="Calibri,Calibri_MSFontService,sans-serif" font-weight="700" font-size="16" transform="matrix(1 0 0 1.00189 455.901 83)">abstracts</text><text font-family="Calibri,Calibri_MSFontService,sans-serif" font-weight="700" font-size="16" transform="matrix(1 0 0 1.00189 455.854 123)">screened</text><path d="M301 39.575 809 39.575 809 31.0586 826 48.0907 809 65.1229 809 56.6071 301 56.6071Z" fill="url(#fill21)" fill-rule="evenodd"/><text font-family="Calibri,Calibri_MSFontService,sans-serif" font-weight="400" font-size="16" transform="matrix(1 0 0 1.00189 527.352 52)">Screening</text><text font-family="Calibri,Calibri_MSFontService,sans-serif" font-weight="700" font-size="16" transform="matrix(1 0 0 1.00189 709.299 84)">assessed for</text><text font-family="Calibri,Calibri_MSFontService,sans-serif" font-weight="700" font-size="16" transform="matrix(1 0 0 1.00189 720.759 127)">eligibility</text></g></svg>
